<?xml version="1.0" standalone="no"?>
<!DOCTYPE svg PUBLIC "-//W3C//DTD SVG 1.1//EN" "http://www.w3.org/Graphics/SVG/1.1/DTD/svg11.dtd" >
<svg xmlns="http://www.w3.org/2000/svg">
<metadata>
Created by FontPrep 20130207 at Tue Sep 16 16:59:56 2014
 By Jefry
Part of the digitally encoded machine readable outline data for producing the Typefaces provided is copyrighted (c) 2003 - 2006 Linotype GmbH, www.linotype.com. All rights reserved. This software is the property of Linotype GmbH, and may not be reproduced, modified, disclosed or transferred without the express written approval of Linotype GmbH. Copyright (c) 1988, 1990, 1993 Adobe Systems Incorporated. All Rights Reserved. Helvetica is a trademark of Heidelberger Druckmaschinen AG, exclusively licensed through Linotype GmbH, and may be registered in certain jurisdictions. This typeface is original artwork of Linotype Design Studio. The design may be protected in certain jurisdictions.
</metadata>
<defs>
<font id="cc7193481c6863477e7cf3cc3ee17e32" horiz-adv-x='1024' >
  <font-face 
    font-family="HelveticaNeueLTCom-BdCn"
    font-weight="700"
    font-stretch="normal"
    units-per-em="2048"
    panose-1="2 11 7 6 3 5 2 3 2 4"
    ascent="1462"
    descent="-586"
    x-height="1102"
    cap-height="1462"
    bbox="-336 -518 2183 1954"
    underline-thickness="102"
    underline-position="-102"
    unicode-range="U+0020-FB02"
  />
<missing-glyph horiz-adv-x="1048" 
d="M1049 1470v-1470h-1049v1470h1049zM946 102v1264h-844v-1264h844zM680 988q0 56 -46 106.5t-109.5 50.5t-109.5 -45t-59 -150l-102 17q14 145 90 212.5t186 67.5t182 -73.5t72 -194.5q0 -66 -25.5 -120t-102.5 -124t-89 -108.5t-12 -147.5h-94l-4 35q0 113 26.5 165.5
t93.5 118.5t85 100t18 90zM455 240v137h114v-137h-114z" />
    <glyph glyph-name="IJ" unicode="IJ" horiz-adv-x="1472" 
d="M117 0v1462h295v-1462h-295zM1382 1462v-1052q0 -233 -108 -336q-109 -102 -327 -102t-315 127q-77 102 -77 300v64h270v-45q0 -117 26 -173q25 -57 105 -57t106 56t25 174v1044h295z" />
    <glyph glyph-name="ij" unicode="ij" 
d="M104 1102h283v-1102h-283v1102zM104 1479h283v-242h-283v242zM463 -156h22q71 0 91 38t20 138v1082h283v-1178q0 -146 -71 -215t-232 -69q-74 0 -136 4v204q12 -4 23 -4zM596 1479h283v-242h-283v242z" />
    <glyph glyph-name="napostrophe" unicode="&#x22;n" horiz-adv-x="1085" 
d="M991 0h-282v760q0 86 -29 120t-92 33q-150 0 -150 -182v-731h-282v1102h270v-129h4q87 159 281 157q282 0 280 -313v-817zM293 1704v-199q0 -176 -128 -205q-36 -8 -71 -12v74q35 10 53 32t21 68h-105v242h230z" />
    <glyph glyph-name="fi" unicode="fi" horiz-adv-x="1099" 
d="M156 909h-144v193h144v125q0 211 172 251q55 13 126 13t148 -6v-201q-10 2 -29 2h-26q-59 0 -84 -20t-25 -68v-96h164v-193h-164v-909h-282v909zM715 1102h282v-1102h-282v1102zM715 1479h282v-242h-282v242z" />
    <glyph glyph-name="fl" unicode="fl" horiz-adv-x="1099" 
d="M156 909h-144v193h144v125q0 211 172 251q55 13 126 13t148 -6v-201q-10 2 -29 2h-26q-59 0 -84 -20t-25 -68v-96h164v-193h-164v-909h-282v909zM715 1462h282v-1462h-282v1462z" />
    <glyph glyph-name=".notdef" horiz-adv-x="1048" 
d="M1049 1470v-1470h-1049v1470h1049zM946 102v1264h-844v-1264h844zM680 988q0 56 -46 106.5t-109.5 50.5t-109.5 -45t-59 -150l-102 17q14 145 90 212.5t186 67.5t182 -73.5t72 -194.5q0 -66 -25.5 -120t-102.5 -124t-89 -108.5t-12 -147.5h-94l-4 35q0 113 26.5 165.5
t93.5 118.5t85 100t18 90zM455 240v137h114v-137h-114z" />
    <glyph glyph-name=".null" horiz-adv-x="1024" 
 />
    <glyph glyph-name="nonmarkingreturn" horiz-adv-x="0" 
 />
    <glyph glyph-name="space" unicode=" " horiz-adv-x="491" 
 />
    <glyph glyph-name="exclam" unicode="!" horiz-adv-x="606" 
d="M162 1462h282v-475l-38 -579h-205l-39 579v475zM444 270v-270h-282v270h282z" />
    <glyph glyph-name="quotedbl" unicode="&#x22;" horiz-adv-x="948" 
d="M547 1462h254v-657h-254v657zM147 1462h254v-657h-254v657z" />
    <glyph glyph-name="numbersign" unicode="#" 
d="M0 586h178l33 250h-150v229h177l45 356h196l-43 -356h199l45 356h199l-45 -356h149v-229h-176l-33 -250h150v-230h-176l-46 -356h-198l45 356h-201l-43 -356h-199l46 356h-152v230zM377 586h198l33 250h-200z" />
    <glyph glyph-name="dollar" unicode="$" 
d="M551 188q119 26 119 163t-119 200v-363zM420 1233q-100 -29 -100 -150t100 -178v328zM930 1063v-29h-283q-2 78 -22.5 130.5t-73.5 68.5v-387l162 -66q129 -57 190.5 -135t61.5 -235q0 -221 -105.5 -322.5t-308.5 -116.5v-178h-131v178q-334 26 -368 183t-34 237v43h283
q0 -107 23 -166.5t96 -79.5v414l-103 37q-150 53 -215 152.5t-65 240.5q0 190 99.5 294t283.5 124v141h131v-141q379 -34 379 -387z" />
    <glyph glyph-name="percent" unicode="%" horiz-adv-x="1593" 
d="M1141 365q0 -117 14 -177.5t75.5 -60.5t76 60.5t14.5 177.5t-14.5 175t-76 58t-75.5 -58t-14 -175zM924 362.5q0 210.5 62 301t245 90.5t245 -91.5t62 -300t-62 -300t-245 -91.5t-245 90.5t-62 301zM55 1059q0 209 61.5 300t245.5 91q183 0 245.5 -91t62.5 -300t-62 -300
t-246 -91q-183 0 -245 91t-62 300zM272 1061q0 -117 14.5 -177.5t76 -60.5t76 60.5t14.5 177.5t-14.5 175t-76 58t-76 -58t-14.5 -175zM1118 1485h182l-831 -1548h-182z" />
    <glyph glyph-name="ampersand" unicode="&#x26;" horiz-adv-x="1214" 
d="M412 1161q0 -59 73 -157l35 -50l53 45q93 78 93 160q0 59 -36 91t-91 32t-91 -31t-36 -90zM457 641q-150 -115 -150 -243q0 -127 78 -162t127 -35q117 0 190 92zM825 113q-118 -142 -366 -142q-125 0 -279.5 76.5t-154.5 345.5q0 237 294 422l-51 76q-82 119 -90 176
t-8 107t27.5 107.5t103.5 119t249 61.5t265 -85.5t92 -208.5q0 -122 -62.5 -210t-191.5 -180l219 -297q52 106 52 221h254q0 -216 -150 -432l193 -270h-314z" />
    <glyph glyph-name="quotesingle" unicode="'" horiz-adv-x="532" 
d="M139 1462h254v-657h-254v657z" />
    <glyph glyph-name="parenleft" unicode="(" horiz-adv-x="606" 
d="M102 542q0 468 287 920h217q-187 -348 -210 -568t-23 -419.5t52.5 -406.5t180.5 -445h-217q-287 451 -287 919z" />
    <glyph glyph-name="parenright" unicode=")" horiz-adv-x="606" 
d="M504 542.5q0 -468.5 -287 -919.5h-217q131 243 182 448t51 534.5t-85 535t-148 321.5h217q287 -451 287 -919.5z" />
    <glyph glyph-name="asterisk" unicode="*" horiz-adv-x="798" 
d="M483 1462v-262l250 82l51 -160l-249 -82l155 -213l-137 -98l-154 213l-153 -213l-137 98l155 213l-250 82l52 160l249 -82v262h168z" />
    <glyph glyph-name="plus" unicode="+" horiz-adv-x="1228" 
d="M487 391h-391v254h391v391h254v-391h392v-254h-392v-391h-254v391z" />
    <glyph glyph-name="comma" unicode="," horiz-adv-x="491" 
d="M381 319v-266q0 -181 -59.5 -278.5t-210.5 -112.5v143q53 10 79.5 57.5t26.5 104.5v33h-106v319h270z" />
    <glyph glyph-name="hyphen" unicode="-" horiz-adv-x="757" 
d="M668 713v-242h-578v242h578z" />
    <glyph glyph-name="period" unicode="." horiz-adv-x="491" 
d="M381 319v-319h-270v319h270z" />
    <glyph glyph-name="slash" unicode="/" horiz-adv-x="679" 
d="M457 1491h229l-463 -1520h-229z" />
    <glyph glyph-name="zero" unicode="0" 
d="M332 612q0 -273 25.5 -342t56 -87.5t78.5 -18.5t79 23.5t55.5 102.5t24.5 361v158q0 273 -25.5 342.5t-56 87.5t-78.5 18q-95 0 -127 -102t-32 -385v-158zM37 654q0 172 10 312t55 247.5t136.5 172t237.5 64.5t234.5 -38t162 -156.5t73.5 -510.5q0 -152 -22.5 -463
t-431.5 -311q-133 0 -220.5 38t-139.5 122t-73.5 217.5t-21.5 305.5z" />
    <glyph glyph-name="one" unicode="1" 
d="M373 0v1024h-289v193h27q147 0 232 55t108 178h217v-1450h-295z" />
    <glyph glyph-name="two" unicode="2" 
d="M37 1030q0 420 450 420q221 0 328 -102.5t107 -300.5t-82 -298t-144 -155l-164 -152q-124 -111 -149 -213h547v-229h-893q0 272 119.5 416.5t199.5 218.5l119 110q94 83 123 149.5t29 182.5q0 180 -142 180t-154 -112.5t-12 -169.5h-282v55z" />
    <glyph glyph-name="three" unicode="3" 
d="M623 1067q1 190 -129 190q-101 0 -131.5 -58.5t-30.5 -176.5h-271q0 428 426 428q418 0 418 -373q0 -131 -58.5 -214t-162.5 -105v-4q141 -23 199.5 -114t58.5 -228q0 -185 -105 -313t-376 -128q-211 0 -315.5 118t-104.5 329v6h283q2 -127 33.5 -193.5t127.5 -66.5
q140 0 151 93t11 141q0 113 -39.5 180t-150.5 67h-99v193h97q125 0 146.5 92t21.5 137z" />
    <glyph glyph-name="four" unicode="4" 
d="M545 1081h-4l-283 -551h287v551zM815 1450v-920h139v-229h-139v-301h-270v301h-516v242l481 907h305z" />
    <glyph glyph-name="five" unicode="5" 
d="M463 176q172 0 172 257q0 204 -35.5 268.5t-134.5 64.5q-122 0 -139 -133h-265l54 788h755v-229h-534l-31 -330h4q78 109 269 109q190 0 271 -132.5t81 -330.5q0 -263 -102 -400t-356 -137t-344.5 121.5t-90.5 282.5v39h282q0 -238 144 -238z" />
    <glyph glyph-name="six" unicode="6" 
d="M637 1081q1 176 -125 176q-66 0 -101.5 -27.5t-61 -91.5t-25.5 -249v-72h4q81 125 272 125q354 0 354 -453q0 -252 -111.5 -385t-357.5 -133q-275 0 -351.5 149.5t-90.5 272.5t-14 267t9 288t55 255.5t144.5 179t278.5 67.5q275 0 338.5 -132t65.5 -237h-283zM501 164
q97 0 127.5 72.5t30.5 216.5q0 145 -36.5 208.5t-123.5 63.5t-124 -63.5t-37 -207.5t23.5 -195.5t55.5 -73t84 -21.5z" />
    <glyph glyph-name="seven" unicode="7" 
d="M938 1421v-225q-168 -237 -278 -552t-148 -644h-309q56 459 201 740.5t251 426.5h-610v254h893z" />
    <glyph glyph-name="eight" unicode="8" 
d="M66 1051q0 213 113.5 306t312 93t312.5 -93t114 -306q0 -147 -76 -206t-133 -73v-4q123 -25 184 -123t61 -254t-97.5 -288t-365 -132t-365 132.5t-97.5 287.5q0 156 61.5 254t183.5 123v4q-107 25 -157.5 105.5t-50.5 173.5zM348 1059q0 -104 39 -153.5t104.5 -49.5
t104.5 49t39 154q0 199 -143.5 199t-143.5 -199zM491.5 664q-167.5 0 -167.5 -250q0 -120 26.5 -165.5t59 -65t103 -19.5t108.5 65t38 185q0 250 -167.5 250z" />
    <glyph glyph-name="nine" unicode="9" 
d="M346 338q0 -174 125 -174q115 0 151.5 91.5t36.5 276.5v70h-4q-83 -123 -272 -123q-271 0 -312.5 177.5t-41.5 275.5q0 252 111.5 385t370.5 133t337 -149.5t92 -272t14 -266.5t-9 -288t-82.5 -323.5t-395.5 -179.5q-277 0 -339 131t-65 236h283zM484 696q87 0 124 63.5
t37 208.5t-23.5 195.5t-55.5 72t-84 21.5q-97 0 -127.5 -71.5t-30.5 -216.5t36.5 -209t123.5 -64z" />
    <glyph glyph-name="colon" unicode=":" horiz-adv-x="491" 
d="M111 319h270v-319h-270v319zM111 1067h270v-319h-270v319z" />
    <glyph glyph-name="semicolon" unicode=";" horiz-adv-x="491" 
d="M381 319v-266q0 -181 -59.5 -278.5t-210.5 -112.5v143q53 10 79.5 57.5t26.5 104.5v33h-106v319h270zM381 1067v-319h-270v319h270z" />
    <glyph glyph-name="less" unicode="&#x3c;" horiz-adv-x="1228" 
d="M96 627l1037 426v-254l-693 -281l693 -280v-254l-1037 426v217z" />
    <glyph glyph-name="equal" unicode="=" horiz-adv-x="1228" 
d="M96 868h1037v-254h-1037v254zM96 422h1037v-254h-1037v254z" />
    <glyph glyph-name="greater" unicode="&#x3e;" horiz-adv-x="1228" 
d="M96 238l692 280l-692 281v254l1037 -426v-217l-1037 -426v254z" />
    <glyph glyph-name="question" unicode="?" horiz-adv-x="985" 
d="M489 1286q-145 0 -145 -225v-51h-270v47q0 294 151.5 358t253.5 64q217 0 324.5 -107.5t107.5 -288.5q0 -86 -27.5 -159.5t-101.5 -159.5l-82 -92q-53 -59 -76.5 -108.5t-23.5 -127.5v-30h-254v79q0 102 28.5 173t98.5 149l78 88q78 85 78 217q0 78 -35 126t-105 48z
M614 270v-270h-282v270h282z" />
    <glyph glyph-name="at" unicode="@" horiz-adv-x="1638" 
d="M612 656q0 -56 40 -105t98 -49q107 0 176 81.5t69 164.5q0 82 -45 127t-101 45t-98 -24t-73 -60.5t-48.5 -80t-17.5 -99.5zM821 1137q162 0 248 -138l27 109h180l-119 -512q-12 -59 -12 -84q0 -41 41 -41q69 0 141 104t72 229q0 223 -162.5 358.5t-391.5 135.5
q-230 0 -393 -172.5t-163 -400.5t170.5 -394.5t420.5 -166.5q212 0 433 131h182q-234 -324 -676 -324q-158 0 -296 59.5t-241.5 163t-163 241.5t-59.5 296t59.5 296t163 241.5t242 163t294.5 59.5q320 0 540.5 -174.5t220.5 -446.5q0 -197 -93 -329.5t-215.5 -194
t-205.5 -61.5q-123 0 -133 108h-4q-103 -108 -234 -108t-221 97t-90 251q0 199 123.5 351.5t314.5 152.5z" />
    <glyph glyph-name="A" unicode="A" horiz-adv-x="1138" 
d="M387 1462h365l387 -1462h-308l-67 309h-389l-68 -309h-307zM426 551h287l-142 657h-4z" />
    <glyph glyph-name="B" unicode="B" horiz-adv-x="1138" 
d="M596 1462q416 0 416 -370q0 -119 -55.5 -204t-165.5 -116v-4q123 -16 194.5 -104.5t71.5 -235.5q0 -296 -164 -362t-293 -66h-498v1462h494zM397 862h84q123 0 179.5 44t56.5 148.5t-51.5 147.5t-161.5 43h-107v-383zM750 438q0 219 -226 219h-127v-440h115q106 0 172 47
t66 174z" />
    <glyph glyph-name="C" unicode="C" horiz-adv-x="1099" 
d="M727 969q0 160 -38 232.5t-142 72.5t-142 -122.5t-38 -364.5t11 -344.5t34.5 -159t59.5 -76t79 -19.5q94 0 141 76.5t47 294.5h295q0 -272 -98 -430t-367 -158q-166 0 -264 56.5t-150.5 157t-67.5 240.5t-15 306t15 306.5t97 297t375 156.5q292 0 377.5 -150t85.5 -372
h-295z" />
    <glyph glyph-name="D" unicode="D" horiz-adv-x="1175" 
d="M117 1462h483q286 0 384.5 -175t98.5 -556t-108.5 -556t-392.5 -175h-465v1462zM412 217h131q76 0 124 26.5t84.5 108t36.5 372.5t-46 406t-205 115h-125v-1028z" />
    <glyph glyph-name="E" unicode="E" horiz-adv-x="985" 
d="M920 1462v-241h-523v-344h492v-242h-492v-393h543v-242h-838v1462h818z" />
    <glyph glyph-name="F" unicode="F" horiz-adv-x="948" 
d="M102 1462h818v-241h-523v-344h492v-242h-492v-635h-295v1462z" />
    <glyph glyph-name="G" unicode="G" horiz-adv-x="1138" 
d="M88 744q0 389 110 568t367 179t363 -120t106 -343h-282q0 94 -30 146.5t-61.5 76t-76.5 23.5q-106 0 -153.5 -119t-47.5 -400t29.5 -384t69.5 -143t103 -40t123 62t60 172v149h-195v217h478v-788h-217v135h-5q-101 -164 -307 -164q-256 0 -328.5 148.5t-89 292.5
t-16.5 332z" />
    <glyph glyph-name="H" unicode="H" horiz-adv-x="1138" 
d="M102 1462h295v-559h344v559h295v-1462h-295v649h-344v-649h-295v1462z" />
    <glyph glyph-name="I" unicode="I" horiz-adv-x="528" 
d="M117 0v1462h295v-1462h-295z" />
    <glyph glyph-name="J" unicode="J" horiz-adv-x="948" 
d="M858 1462v-1052q0 -233 -108.5 -336t-326.5 -103t-305 114.5t-87 313.5v64h270v-45q0 -117 25.5 -173.5t105.5 -56.5t105.5 56.5t25.5 173.5v1044h295z" />
    <glyph glyph-name="K" unicode="K" horiz-adv-x="1099" 
d="M397 1462v-585h4l373 585h320l-398 -626l443 -836h-332l-301 600l-109 -166v-434h-295v1462h295z" />
    <glyph glyph-name="L" unicode="L" horiz-adv-x="948" 
d="M102 0v1462h295v-1220h523v-242h-818z" />
    <glyph glyph-name="M" unicode="M" horiz-adv-x="1515" 
d="M109 1462h438l209 -1032h4l211 1032h436v-1462h-270v1167h-4l-261 -1167h-229l-260 1167h-4v-1167h-270v1462z" />
    <glyph glyph-name="N" unicode="N" horiz-adv-x="1175" 
d="M803 461v1001h270v-1462h-336l-360 1024h-4v-1024h-271v1462h340l357 -1001h4z" />
    <glyph glyph-name="O" unicode="O" horiz-adv-x="1138" 
d="M367 731.5q0 -147.5 7 -251t28.5 -168t61.5 -94.5t105.5 -30t105.5 30t61.5 94.5t28.5 168t7 251t-7 249.5t-28.5 167.5t-61.5 95.5t-105.5 30t-105.5 -30t-61.5 -95.5t-28.5 -167.5t-7 -249.5zM72 731q0 166 15 306.5t67.5 240.5t150.5 156.5t264 56.5t264.5 -56.5
t150.5 -156.5t67.5 -240.5t15.5 -306.5t-15.5 -306t-67.5 -240.5t-150.5 -157t-264.5 -56.5t-264 56.5t-150.5 157t-67.5 240.5t-15 306z" />
    <glyph glyph-name="P" unicode="P" horiz-adv-x="1062" 
d="M102 1462h516q208 0 305 -125.5t97 -312.5q0 -329 -180.5 -384.5t-284.5 -55.5h-158v-584h-295v1462zM397 801h131q88 0 142.5 53t54.5 165t-47 169t-158 57h-123v-444z" />
    <glyph glyph-name="Q" unicode="Q" horiz-adv-x="1138" 
d="M541 -29q-138 0 -236 56.5t-150.5 157t-67.5 240.5t-15 306t15 306.5t67.5 240.5t150.5 156.5t264 56.5t264.5 -56.5t150.5 -156.5t67.5 -240.5t15.5 -316.5t-20.5 -327.5t-92.5 -256.5l158 -160l-174 -157l-174 180q-85 -29 -223 -29zM367 731.5q0 -147.5 7 -251
t28.5 -168t61.5 -94.5t105.5 -30t105.5 30t61.5 94.5t28.5 168t7 251t-7 249.5t-28.5 167.5t-61.5 95.5t-105.5 30t-105.5 -30t-61.5 -95.5t-28.5 -167.5t-7 -249.5z" />
    <glyph glyph-name="R" unicode="R" horiz-adv-x="1138" 
d="M397 823h123q106 0 163.5 50.5t57.5 168.5q0 203 -204 203h-140v-422zM1036 1085q0 -308 -243 -360v-4q142 -19 186.5 -111t47.5 -272t14.5 -241.5t52.5 -84.5v-12h-320q-32 43 -37 154l-8 280q-4 86 -43 135t-131 49h-158v-618h-295v1462h545q184 0 286.5 -93
t102.5 -284z" />
    <glyph glyph-name="S" unicode="S" horiz-adv-x="1062" 
d="M340 457v-43q0 -114 43.5 -170t151.5 -56q68 0 122 44t54 138t-55 146t-180 94q-125 41 -197 80t-142.5 116t-70.5 275q0 197 120.5 303.5t331.5 106.5q322 0 387.5 -144.5t65.5 -248.5v-41h-283q0 104 -37 160.5t-125 56.5t-127 -47t-39 -119t29 -118t123 -85l227 -98
q160 -72 219.5 -159t59.5 -228q0 -231 -134 -340t-379 -109t-352.5 112t-107.5 314v60h295z" />
    <glyph glyph-name="T" unicode="T" 
d="M958 1462v-241h-319v-1221h-295v1221h-319v241h933z" />
    <glyph glyph-name="U" unicode="U" horiz-adv-x="1101" 
d="M379 1462v-1020q0 -123 26.5 -169t59.5 -65.5t85 -19.5q98 0 135.5 65.5t37.5 188.5v1020h295v-1020q0 -257 -131 -364t-339.5 -107t-336 102.5t-127.5 368.5v1020h295z" />
    <glyph glyph-name="V" unicode="V" horiz-adv-x="1062" 
d="M322 1462l206 -1081h7l217 1081h305l-336 -1462h-379l-336 1462h316z" />
    <glyph glyph-name="W" unicode="W" horiz-adv-x="1556" 
d="M16 1462h283l162 -1081h4l172 1081h283l172 -1081h4l161 1081h283l-266 -1462h-330l-164 1061h-4l-164 -1061h-329z" />
    <glyph glyph-name="X" unicode="X" horiz-adv-x="1099" 
d="M41 1462h326l188 -473l186 473h322l-340 -723l364 -739h-331l-211 496l-209 -496h-324l365 739z" />
    <glyph glyph-name="Y" unicode="Y" horiz-adv-x="1064" 
d="M680 0h-295v575l-379 887h332l192 -565h5l204 565h320l-379 -887v-575z" />
    <glyph glyph-name="Z" unicode="Z" horiz-adv-x="985" 
d="M86 1221v241h842v-223l-547 -997h555v-242h-887v215l539 1006h-502z" />
    <glyph glyph-name="bracketleft" unicode="[" horiz-adv-x="645" 
d="M164 1462h469v-205h-215v-1429h215v-205h-469v1839z" />
    <glyph glyph-name="backslash" unicode="\" horiz-adv-x="679" 
d="M-6 1491h229l463 -1520h-229z" />
    <glyph glyph-name="bracketright" unicode="]" horiz-adv-x="645" 
d="M12 -172h215v1429h-215v205h469v-1839h-469v205z" />
    <glyph glyph-name="asciicircum" unicode="^" horiz-adv-x="1228" 
d="M115 633l385 788h229l385 -788h-254l-246 506l-245 -506h-254z" />
    <glyph glyph-name="underscore" unicode="_" horiz-adv-x="1024" 
d="M0 -256v102h1024v-102h-1024z" />
    <glyph glyph-name="grave" unicode="`" horiz-adv-x="454" 
d="M168 1233l-201 295h283l110 -295h-192z" />
    <glyph glyph-name="a" unicode="a" horiz-adv-x="985" 
d="M434 164q111 0 142.5 61.5t31.5 108.5v217q-49 -39 -128 -56q-152 -33 -152 -182t106 -149zM338 -29q-152 0 -216.5 95.5t-64.5 196.5q0 102 16.5 158t63.5 111.5t199 98.5l160 43q63 16 87.5 45t24.5 88q0 131 -131 131q-66 0 -98.5 -39t-32.5 -104v-31h-254v27
q0 177 105 258t256 81t230 -24.5t137.5 -85.5t58.5 -227v-580q0 -130 34 -213h-270q-19 36 -35 115h-4q-49 -86 -113.5 -115t-152.5 -29z" />
    <glyph glyph-name="b" unicode="b" horiz-adv-x="1024" 
d="M377 551q0 -180 27.5 -271.5t120.5 -91.5t121 91.5t28 271.5t-28 271t-121 91t-120.5 -91t-27.5 -271zM631 1130q161 0 243 -136t82 -443t-81.5 -443.5t-256.5 -136.5q-86 0 -144 34t-105 112h-4v-117h-271v1462h283v-463h4q89 131 250 131z" />
    <glyph glyph-name="c" unicode="c" horiz-adv-x="948" 
d="M625 705q0 221 -127 221q-100 0 -131 -87t-31 -239q0 -264 30 -350t112 -86q81 0 114 61.5t33 196.5h270q0 -217 -97.5 -334t-319.5 -117t-323.5 129t-101.5 451q0 466 174 522.5t273 56.5q197 0 296 -114.5t99 -310.5h-270z" />
    <glyph glyph-name="d" unicode="d" horiz-adv-x="1024" 
d="M350 551q0 -180 28 -271.5t121 -91.5t120.5 91.5t27.5 271.5t-27.5 271t-120.5 91t-121 -91t-28 -271zM392 1130q161 0 251 -131h4v463h283v-1462h-271v117h-4q-47 -78 -105 -112t-144 -34q-174 0 -256 136.5t-82 443.5t81.5 443t242.5 136z" />
    <glyph glyph-name="e" unicode="e" horiz-adv-x="948" 
d="M463.5 938q-60.5 0 -94 -64.5t-33.5 -154.5v-43h289q-4 136 -24.5 181.5t-48.5 63t-88.5 17.5zM336 508v-88q0 -175 50 -215.5t89 -40.5q72 0 104.5 51t45.5 156h254q-8 -193 -102.5 -296.5t-297.5 -103.5q-273 0 -340 138.5t-76.5 244.5t-9.5 212q0 258 88.5 411
t350.5 153q334 0 368.5 -216t34.5 -343v-63h-559z" />
    <glyph glyph-name="f" unicode="f" horiz-adv-x="606" 
d="M156 909h-144v193h144v125q0 209 113.5 236.5t184.5 27.5t148 -6v-201q-10 2 -29 2h-26q-59 0 -84 -20.5t-25 -67.5v-96h164v-193h-164v-909h-282v909z" />
    <glyph glyph-name="g" unicode="g" horiz-adv-x="1024" 
d="M494 -197q155 0 155 199v145h-4q-43 -61 -105.5 -98t-129.5 -37q-168 0 -253 128t-85 402t69.5 431t276.5 157q59 0 122.5 -32.5t104.5 -118.5h4v123h271v-1047q0 -221 -105.5 -326.5t-353.5 -105.5q-180 0 -277.5 77t-97.5 218h270q0 -76 55.5 -95.5t82.5 -19.5z
M614.5 310q34.5 81 34.5 258q0 178 -31.5 261.5t-118.5 83.5t-116 -82.5t-29 -226.5q0 -145 5.5 -196.5t29.5 -115t107.5 -63.5t118 81z" />
    <glyph glyph-name="h" unicode="h" horiz-adv-x="1024" 
d="M649 1130q281 0 281 -313v-817h-283v760q0 86 -28.5 119.5t-92.5 33.5q-150 0 -149 -182v-731h-283v1462h283v-473h4q82 141 268 141z" />
    <glyph glyph-name="i" unicode="i" horiz-adv-x="491" 
d="M104 1102h283v-1102h-283v1102zM104 1479h283v-242h-283v242z" />
    <glyph glyph-name="j" unicode="j" horiz-adv-x="491" 
d="M84 -360q-74 0 -135 4v204q12 -4 22 -4h23q71 0 90.5 38t19.5 138v1082h283v-1178q0 -145 -70.5 -214.5t-232.5 -69.5zM104 1479h283v-242h-283v242z" />
    <glyph glyph-name="k" unicode="k" horiz-adv-x="1024" 
d="M387 1462v-772h4l285 412h311l-317 -434l364 -668h-311l-236 453l-100 -131v-322h-283v1462h283z" />
    <glyph glyph-name="l" unicode="l" horiz-adv-x="491" 
d="M104 1462h283v-1462h-283v1462z" />
    <glyph glyph-name="m" unicode="m" horiz-adv-x="1552" 
d="M1176 770q0 143 -111 143q-68 0 -107.5 -45t-39.5 -143v-725h-283v770q0 70 -25.5 106.5t-89.5 36.5t-103.5 -45t-39.5 -143v-725h-283v1102h271v-113h4q53 76 119.5 108.5t161.5 32.5t162 -45t89 -131h4q66 176 279 176q274 0 274 -329v-801h-282v770z" />
    <glyph glyph-name="n" unicode="n" horiz-adv-x="1024" 
d="M649 1130q281 0 281 -313v-817h-283v760q0 86 -28.5 119.5t-92.5 33.5q-150 0 -149 -182v-731h-283v1102h271v-129h4q86 157 280 157z" />
    <glyph glyph-name="o" unicode="o" 
d="M368 257.5q28 -93.5 119 -93.5t123.5 90t32.5 297t-32.5 297t-118.5 90q-135 0 -143.5 -151.5t-8.5 -293.5t28 -235.5zM157.5 987.5q100.5 142.5 340.5 144.5t334 -139t94 -439q0 -297 -101 -440t-339 -145q-239 -2 -334 139t-95 439t100.5 440.5z" />
    <glyph glyph-name="p" unicode="p" horiz-adv-x="1024" 
d="M377 551q0 -180 27.5 -271.5t120.5 -91.5t121 91.5t28 271.5t-28 271t-121 91t-120.5 -91t-27.5 -271zM618 -29q-146 0 -237 131h-4v-462h-283v1462h271v-117h4q47 78 105 111.5t144 33.5q174 0 256 -136t82 -443t-81.5 -443.5t-256.5 -136.5z" />
    <glyph glyph-name="q" unicode="q" horiz-adv-x="1024" 
d="M647 551q0 180 -27.5 271t-120.5 91t-121 -91t-28 -271t28 -271.5t121 -91.5t120.5 91.5t27.5 271.5zM68 551q0 307 81.5 443t256.5 136q86 0 144 -33.5t105 -111.5h4v117h271v-1462h-283v462h-4q-89 -131 -250 -131t-243 136.5t-82 443.5z" />
    <glyph glyph-name="r" unicode="r" horiz-adv-x="681" 
d="M588 860q-88 0 -149.5 -48t-61.5 -150v-662h-283v1102h271v-148h4q95 176 254 176q27 0 51 -4v-270q-47 4 -86 4z" />
    <glyph glyph-name="s" unicode="s" horiz-adv-x="909" 
d="M301 360v-36q0 -72 38 -116t107 -44q146 0 146 131q0 53 -31 80.5t-72 44.5l-198 72q-236 83 -236 309t148.5 277.5t257.5 51.5q193 0 285 -81.5t92 -231.5v-45h-254q0 86 -28 126t-89 40t-101 -30t-40 -80t25.5 -82.5t97.5 -55.5l169 -57q133 -45 188.5 -118t55.5 -179
q0 -188 -112 -276.5t-297 -88.5q-328 0 -367 135.5t-39 215.5v38h254z" />
    <glyph glyph-name="t" unicode="t" horiz-adv-x="606" 
d="M398 -12q-144 0 -193 60.5t-49 230.5v630h-144v193h144v315h282v-315h164v-193h-164v-596q0 -66 20 -93t68 -27t76 4v-197q-140 -12 -204 -12z" />
    <glyph glyph-name="u" unicode="u" horiz-adv-x="1024" 
d="M94 285v817h283v-760q0 -86 28.5 -120t92.5 -34q150 0 149 183v731h283v-1102h-271v129h-4q-87 -158 -280 -158q-281 0 -281 314z" />
    <glyph glyph-name="v" unicode="v" horiz-adv-x="909" 
d="M616 1102h283l-276 -1102h-328l-285 1102h295l158 -789h4z" />
    <glyph glyph-name="w" unicode="w" horiz-adv-x="1441" 
d="M14 1102h283l129 -783h4l137 783h307l146 -783h4l133 783h270l-237 -1102h-322l-145 782h-4l-137 -782h-328z" />
    <glyph glyph-name="x" unicode="x" horiz-adv-x="946" 
d="M625 1102h295l-287 -535l299 -567h-295l-164 360l-164 -360h-295l299 567l-286 535h295l151 -332z" />
    <glyph glyph-name="y" unicode="y" horiz-adv-x="909" 
d="M168 -156q78 0 111.5 41t39.5 115l-309 1102h295l164 -762h4l143 762h283l-266 -1028q-12 -78 -58.5 -196t-92.5 -164t-110.5 -60t-162.5 -14h-115v210q37 -6 74 -6z" />
    <glyph glyph-name="z" unicode="z" horiz-adv-x="872" 
d="M70 872v230h753v-217l-440 -656h440v-229h-774v217l440 655h-419z" />
    <glyph glyph-name="braceleft" unicode="{" horiz-adv-x="645" 
d="M61 627q51 0 93.5 47t42.5 119v395q0 131 54 202.5t159 71.5h182v-205h-62q-49 0 -64 -44t-15 -103v-340q0 -92 -41 -152.5t-107 -72.5v-4q66 -12 107 -72.5t41 -153.5v-340q0 -59 15 -103t64 -44h62v-205h-182q-104 0 -158.5 72t-54.5 203v395q0 72 -42 119t-94 47v168z
" />
    <glyph glyph-name="bar" unicode="|" horiz-adv-x="454" 
d="M100 1491h254v-1520h-254v1520z" />
    <glyph glyph-name="braceright" unicode="}" horiz-adv-x="645" 
d="M53 -172h62q49 0 64.5 44t15.5 103v340q0 92 40.5 152.5t106.5 73.5v4q-66 12 -106.5 72.5t-40.5 152.5v340q0 59 -15.5 103t-64.5 44h-62v205h183q104 0 158.5 -71.5t54.5 -202.5v-395q0 -72 41.5 -119t93.5 -47v-168q-51 0 -93 -47t-42 -119v-395q0 -131 -54.5 -203
t-158.5 -72h-183v205z" />
    <glyph glyph-name="asciitilde" unicode="~" horiz-adv-x="1228" 
d="M290.5 414.5q-54.5 -46.5 -75.5 -92.5l-74 217q41 78 101 127t160 49q100 -1 199 -53t142 -69.5t80 -17.5q61 0 116 46.5t75 93.5l73 -217q-93 -176 -240 -176q-122 0 -245 65q-140 74 -198 74q-59 0 -113.5 -46.5z" />
    <glyph glyph-name="uni00A0" unicode="&#xa0;" horiz-adv-x="491" 
 />
    <glyph glyph-name="exclamdown" unicode="&#xa1;" horiz-adv-x="606" 
d="M444 -360h-282v475l39 579h205l38 -579v-475zM162 1102h282v-271h-282v271z" />
    <glyph glyph-name="cent" unicode="&#xa2;" 
d="M367.5 294.5q17.5 -96.5 87.5 -118.5v750q-68 -25 -86.5 -118t-18.5 -255t17.5 -258.5zM645 428h270q0 -205 -81.5 -319.5t-272.5 -137.5v-180h-106v180q-186 9 -286.5 132t-100.5 416t80 443t307 168v156h106v-156q157 -9 255.5 -100t98.5 -317h-270q0 179 -84 213v-750
q84 49 84 252z" />
    <glyph glyph-name="sterling" unicode="&#xa3;" 
d="M276 45q-64 0 -182 -57l-84 176q106 68 173 163t67 199q0 43 -23 101h-209v168h138q-92 178 -92 272q-1 178 112.5 280.5t325.5 102.5q211 0 326.5 -100.5t119.5 -323.5h-270q0 231 -160 231q-96 0 -134 -50t-38 -116t53 -180l58 -116h342v-168h-289q10 -31 10 -101
q0 -144 -184 -299l8 -4q37 15 75 15q47 0 129.5 -31t121.5 -31q83 0 213 86l90 -192q-152 -98 -305 -99q-48 0 -137 26t-140 37t-115 11z" />
    <glyph glyph-name="currency" unicode="&#xa4;" 
d="M23 711q0 145 79 262l-102 102l125 127l104 -102q117 80 260 80t265 -80l104 102l125 -127l-102 -102q80 -117 80 -262t-80 -262l102 -103l-125 -127l-104 105q-116 -82 -262 -82q-147 0 -263 82l-104 -105l-125 127l102 103q-79 117 -79 262zM240 711q0 -123 67.5 -194
t184 -71t184 71t67.5 194t-67.5 193.5t-184 70.5t-184 -70.5t-67.5 -193.5z" />
    <glyph glyph-name="yen" unicode="&#xa5;" 
d="M365 326h-291v168h291v88l-23 47h-268v168h188l-297 624h305l219 -551h5l229 551h295l-297 -624h188v-168h-268l-23 -47v-88h291v-168h-291v-326h-253v326z" />
    <glyph glyph-name="brokenbar" unicode="&#xa6;" horiz-adv-x="454" 
d="M100 526h254v-555h-254v555zM100 1491h254v-555h-254v555z" />
    <glyph glyph-name="section" unicode="&#xa7;" 
d="M627 1159q-1 139 -131 139q-70 0 -104 -33.5t-34 -75.5q0 -84 131 -149l244 -114q94 -45 159.5 -123t65.5 -208t-61 -201.5t-98 -92.5q110 -88 110 -254q0 -358 -417 -358q-211 0 -312.5 95t-101.5 261v31h270v-31q0 -78 41 -121t108 -43t98.5 43t31.5 97t-30 94.5
t-101 74.5l-252 121q-217 102 -217 258t49 232t135 119q-123 92 -123 233q0 171 114.5 254.5t305.5 83.5q298 0 343.5 -130t45.5 -202h-270zM717 539q0 63 -31 100t-108 78l-197 104q-113 -67 -113 -153q0 -29 17.5 -61t52.5 -50l203 -111q45 -24 80 -51q96 81 96 144z" />
    <glyph glyph-name="dieresis" unicode="&#xa8;" horiz-adv-x="454" 
d="M-63 1501h229v-241h-229v241zM289 1501h229v-241h-229v241z" />
    <glyph glyph-name="copyright" unicode="&#xa9;" horiz-adv-x="1638" 
d="M1014 870q-36 138 -194 138q-92 0 -147 -77t-55 -192t58 -193.5t144 -78.5q87 0 135.5 39t58.5 104h205q-23 -148 -128 -233.5t-257 -85.5q-82 0 -160 34.5t-163 127t-85 285.5t113.5 319.5t304.5 126.5q140 0 243 -81t123 -233h-196zM289 731.5q0 -110.5 40 -210
t110.5 -173.5t168 -117t212 -43t211.5 43t168 117t111 173.5t40 210t-40 209.5t-111 173t-168 117t-211.5 43t-212 -43t-168 -117t-110.5 -173t-40 -209.5zM59 731q0 158 59.5 296t163 241.5t242 163t296 59.5t295.5 -59.5t241.5 -163t163 -241.5t59.5 -296t-59.5 -296
t-163 -241.5t-241.5 -163t-295.5 -59.5t-296 59.5t-242 163t-163 241.5t-59.5 296z" />
    <glyph glyph-name="ordfeminine" unicode="&#xaa;" horiz-adv-x="643" 
d="M600 895q0 -81 23 -129h-205q-10 16 -14.5 35.5t-8.5 36.5q-35 -53 -78 -69.5t-104 -16.5q-104 0 -148.5 56t-44.5 143t42 132t141 66l119 25q73 18 73 69q0 76 -76 76q-41 0 -62 -22.5t-21 -57.5v-18h-193v26q0 113 78.5 158t184.5 45q179 0 236.5 -51t57.5 -152v-352z
M275.5 883q50.5 0 85 21.5t34.5 74.5v121q-26 -20 -75 -30q-95 -21 -95 -104t50.5 -83z" />
    <glyph glyph-name="guillemotleft" unicode="&#xab;" horiz-adv-x="872" 
d="M461 758l305 246v-271l-162 -141l162 -141v-271l-305 246v332zM106 758l306 246v-271l-162 -141l162 -141v-271l-306 246v332z" />
    <glyph glyph-name="logicalnot" unicode="&#xac;" horiz-adv-x="1228" 
d="M879 614h-783v254h1037v-667h-254v413z" />
    <glyph glyph-name="uni00AD" unicode="&#xad;" horiz-adv-x="757" 
d="M668 713v-242h-578v242h578z" />
    <glyph glyph-name="registered" unicode="&#xae;" horiz-adv-x="1638" 
d="M842 1141q315 0 315 -254q0 -104 -58.5 -160.5t-144.5 -67.5l203 -337h-196l-193 329h-66v-329h-180v819h320zM977 897q0 100 -156 100h-119v-202h138q59 0 98 18t39 84zM59 731q0 158 59.5 296t163 241.5t242 163t296 59.5t295.5 -59.5t241.5 -163t163 -241.5t59.5 -296
t-59.5 -296t-163 -241.5t-241.5 -163t-295.5 -59.5t-296 59.5t-242 163t-163 241.5t-59.5 296zM289 731.5q0 -110.5 40 -210t110.5 -173.5t168 -117t212 -43t211.5 43t168 117t111 173.5t40 210t-40 209.5t-111 173t-168 117t-211.5 43t-212 -43t-168 -117t-110.5 -173
t-40 -209.5z" />
    <glyph glyph-name="macron" unicode="&#xaf;" horiz-adv-x="454" 
d="M528 1458v-155h-602v155h602z" />
    <glyph glyph-name="degree" unicode="&#xb0;" horiz-adv-x="819" 
d="M106 1146.5q0 63.5 24 119t65 96.5t96 64.5t118.5 23.5t119 -23.5t96.5 -64.5t64.5 -96.5t23.5 -119t-23.5 -118.5t-64.5 -96t-96.5 -64.5t-119 -23.5t-118.5 23.5t-96 64.5t-65 96t-24 118.5zM262 1146.5q0 -61.5 43 -104.5t104.5 -43t104.5 43t43 104.5t-43 104.5
t-104.5 43t-104.5 -43t-43 -104.5z" />
    <glyph glyph-name="plusminus" unicode="&#xb1;" horiz-adv-x="1228" 
d="M487 1036h254v-221h392v-254h-392v-221h-254v221h-391v254h391v221zM96 254h1037v-254h-1037v254z" />
    <glyph glyph-name="twosuperior" unicode="&#xb2;" horiz-adv-x="638" 
d="M0 1196q0 254 323 254q171 0 243.5 -60.5t72.5 -152.5t-27.5 -152.5t-107.5 -121.5l-117 -91q-94 -73 -108 -131h360v-168h-639q0 117 45 210.5t162 174.5l102 74q59 43 80 81t21 82t-24 71.5t-64 27.5q-105 0 -105 -149h-217v51z" />
    <glyph glyph-name="threesuperior" unicode="&#xb3;" horiz-adv-x="638" 
d="M217 852q5 -137 96 -137q97 0 97 108q0 129 -123 129h-58v144h58q59 0 84.5 33.5t25.5 73.5t-23.5 65.5t-70.5 25.5q-84 0 -84 -123h-205q0 279 297 279q154 0 228.5 -53.5t74.5 -169.5q0 -80 -37.5 -130t-105.5 -65v-4q92 -16 130 -70t38 -116q0 -130 -73.5 -206.5
t-272.5 -76.5q-293 0 -293 272v21h217z" />
    <glyph glyph-name="acute" unicode="&#xb4;" horiz-adv-x="454" 
d="M205 1528h282l-200 -295h-193z" />
    <glyph glyph-name="mu" unicode="&#xb5;" horiz-adv-x="1024" 
d="M447 -29q-42 0 -70 17v-348h-283v1462h283v-760q0 -86 28.5 -120t92.5 -34q150 0 149 183v731h283v-1102h-271v129h-4q-45 -82 -105.5 -120t-102.5 -38z" />
    <glyph glyph-name="paragraph" unicode="&#xb6;" 
d="M373 686q-184 0 -277.5 97.5t-93.5 283.5q0 321 157.5 358t248.5 37h548v-1745h-217v1553h-149v-1553h-217v969z" />
    <glyph glyph-name="periodcentered" unicode="&#xb7;" horiz-adv-x="491" 
d="M47 578q0 86 56.5 142t142.5 56t142 -56t56 -142t-56 -142.5t-142 -56.5t-142.5 56.5t-56.5 142.5z" />
    <glyph glyph-name="cedilla" unicode="&#xb8;" horiz-adv-x="454" 
d="M463 -256q0 -188 -264 -188q-131 0 -199 38l39 95q59 -31 122 -31q122 0 122 64t-90 69q-38 0 -70 -12l-45 41l117 180h106l-78 -119q29 10 65 10q75 0 127 -39t48 -108z" />
    <glyph glyph-name="onesuperior" unicode="&#xb9;" horiz-adv-x="638" 
d="M66 1311q194 0 223 139h176v-877h-229v594h-187v144h17z" />
    <glyph glyph-name="ordmasculine" unicode="&#xba;" horiz-adv-x="643" 
d="M92 1366q67 84 230 84q244 6 270 -128t26 -221q0 -181 -67 -265t-232 -86t-229.5 81.5t-64.5 267t67 267.5zM229 1100q0 -94 15.5 -155.5t71.5 -61.5t77 50t21 167t-20.5 168t-76.5 51t-72 -62.5t-16 -156.5z" />
    <glyph glyph-name="guillemotright" unicode="&#xbb;" horiz-adv-x="872" 
d="M106 451l162 141l-162 141v271l306 -246v-332l-306 -246v271zM461 451l162 141l-162 141v271l305 -246v-332l-305 -246v271z" />
    <glyph glyph-name="onequarter" unicode="&#xbc;" horiz-adv-x="1476" 
d="M1169 623h-4l-176 -297h180v297zM1386 877v-551h91v-168h-91v-158h-217v158h-348v186l312 533h253zM1028 1485h182l-831 -1548h-182zM16 1311q195 0 224 139h176v-877h-230v594h-186v144h16z" />
    <glyph glyph-name="onehalf" unicode="&#xbd;" horiz-adv-x="1476" 
d="M979 1485h182l-831 -1548h-183zM16 1311q195 0 224 139h176v-877h-230v594h-186v144h16zM838 623q0 254 322 254q171 0 244 -60.5t73 -152.5t-28 -152.5t-108 -122.5l-116 -90q-95 -74 -109 -131h361v-168h-639q0 117 45 210t161 175l103 74q59 43 79.5 81t20.5 82
t-23.5 71.5t-64.5 27.5q-104 0 -104 -150h-217v52z" />
    <glyph glyph-name="threequarters" unicode="&#xbe;" horiz-adv-x="1476" 
d="M1386 877v-551h91v-168h-91v-158h-217v158h-348v186l312 533h253zM1169 326v297h-4l-176 -297h180zM1108 1485h182l-831 -1548h-183zM217 852q5 -137 96 -137q97 0 97 108q0 129 -123 129h-58v144h58q59 0 84.5 33.5t25.5 73.5t-23.5 65.5t-70.5 25.5q-84 0 -84 -123
h-205q0 279 297 279q154 0 228.5 -53.5t74.5 -169.5q0 -80 -37.5 -130t-105.5 -65v-4q92 -16 130 -70t38 -116q0 -130 -73.5 -206.5t-272.5 -76.5q-293 0 -293 272v21h217z" />
    <glyph glyph-name="questiondown" unicode="&#xbf;" horiz-adv-x="985" 
d="M496 -184q145 0 145 225v51h270v-47q0 -295 -152.5 -358.5t-252.5 -63.5q-217 0 -324.5 107.5t-107.5 287.5q0 86 27.5 160t101.5 160l82 92q53 59 76.5 108.5t23.5 127.5v30h254v-80q0 -102 -28.5 -172.5t-98.5 -148.5l-78 -88q-78 -85 -78 -217q0 -78 35 -126t105 -48z
M371 831v271h282v-271h-282z" />
    <glyph glyph-name="Agrave" unicode="&#xc0;" horiz-adv-x="1138" 
d="M387 1462h365l387 -1462h-308l-67 309h-389l-68 -309h-307zM426 551h287l-142 657h-4zM504 1548l-201 295h283l110 -295h-192z" />
    <glyph glyph-name="Aacute" unicode="&#xc1;" horiz-adv-x="1138" 
d="M387 1462h365l387 -1462h-308l-67 309h-389l-68 -309h-307zM426 551h287l-142 657h-4zM545 1843h282l-200 -295h-193z" />
    <glyph glyph-name="Acircumflex" unicode="&#xc2;" horiz-adv-x="1138" 
d="M387 1462h365l387 -1462h-308l-67 309h-389l-68 -309h-307zM426 551h287l-142 657h-4zM420 1843h295l159 -295h-217l-94 174l-98 -174h-205z" />
    <glyph glyph-name="Atilde" unicode="&#xc3;" horiz-adv-x="1138" 
d="M387 1462h365l387 -1462h-308l-67 309h-389l-68 -309h-307zM426 551h287l-142 657h-4zM686 1751q30 0 43 27q14 27 14 47h148q-9 -111 -61 -183t-130 -71q-44 -1 -103 23t-87 35t-53 11q-51 0 -66 -73h-143q33 254 190 254q57 0 88 -15l99 -43q31 -12 61 -12z" />
    <glyph glyph-name="Adieresis" unicode="&#xc4;" horiz-adv-x="1138" 
d="M387 1462h365l387 -1462h-308l-67 309h-389l-68 -309h-307zM426 551h287l-142 657h-4zM279 1821h229v-242h-229v242zM631 1821h229v-242h-229v242z" />
    <glyph glyph-name="Aring" unicode="&#xc5;" horiz-adv-x="1138" 
d="M387 1462h365l387 -1462h-308l-67 309h-389l-68 -309h-307zM426 551h287l-142 657h-4zM340 1729q0 102 67 162q67 61 163 62t164 -62q67 -63 68 -163t-67 -160t-165 -60q-98 0 -164 59q-66 60 -66 162zM455 1729q-1 -49 33 -83t83 -34t83 34t34 83t-34 83t-83 33
q-49 1 -83 -33t-33 -83z" />
    <glyph glyph-name="AE" unicode="&#xc6;" horiz-adv-x="1554" 
d="M1489 1462v-241h-481v-344h450v-242h-450v-393h501v-242h-784v309h-326l-102 -309h-307l551 1462h948zM725 551v682h-18l-228 -682h246z" />
    <glyph glyph-name="Ccedilla" unicode="&#xc7;" horiz-adv-x="1099" 
d="M72 750q0 146 15 287t97 297.5t375 156.5q292 0 377.5 -150t85.5 -372h-295q0 160 -38 232.5t-142 72.5t-142 -122.5t-38 -364.5t11 -344.5t34.5 -159t59.5 -76t79 -19.5q94 0 141 76.5t47 294.5h295q0 -204 -34.5 -299.5t-109 -186.5t-286.5 -102l-59 -90q62 21 113 6.5
t90.5 -44t35.5 -99.5q0 -92 -66.5 -140t-198.5 -48t-197 38l38 95q59 -31 122 -31q122 0 122 64.5t-90 68.5q-36 0 -70 -12l-45 41l101 155q-217 15 -310 153.5t-105.5 307t-12.5 314.5z" />
    <glyph glyph-name="Egrave" unicode="&#xc8;" horiz-adv-x="985" 
d="M920 1462v-241h-523v-344h492v-242h-492v-393h543v-242h-838v1462h818zM461 1548l-201 295h283l110 -295h-192z" />
    <glyph glyph-name="Eacute" unicode="&#xc9;" horiz-adv-x="985" 
d="M920 1462v-241h-523v-344h492v-242h-492v-393h543v-242h-838v1462h818zM518 1843h283l-201 -295h-192z" />
    <glyph glyph-name="Ecircumflex" unicode="&#xca;" horiz-adv-x="985" 
d="M920 1462v-241h-523v-344h492v-242h-492v-393h543v-242h-838v1462h818zM367 1843h295l159 -295h-217l-94 174l-98 -174h-205z" />
    <glyph glyph-name="Edieresis" unicode="&#xcb;" horiz-adv-x="985" 
d="M920 1462v-241h-523v-344h492v-242h-492v-393h543v-242h-838v1462h818zM217 1817h229v-242h-229v242zM569 1817h230v-242h-230v242z" />
    <glyph glyph-name="Igrave" unicode="&#xcc;" horiz-adv-x="528" 
d="M117 0v1462h295v-1462h-295zM221 1548l-201 295h283l111 -295h-193z" />
    <glyph glyph-name="Iacute" unicode="&#xcd;" horiz-adv-x="528" 
d="M117 0v1462h295v-1462h-295zM229 1843h283l-201 -295h-192z" />
    <glyph glyph-name="Icircumflex" unicode="&#xce;" horiz-adv-x="528" 
d="M117 0v1462h295v-1462h-295zM121 1843h295l159 -295h-217l-94 174l-98 -174h-205z" />
    <glyph glyph-name="Idieresis" unicode="&#xcf;" horiz-adv-x="528" 
d="M117 0v1462h295v-1462h-295zM-25 1817h230v-242h-230v242zM328 1817h229v-242h-229v242z" />
    <glyph glyph-name="Eth" unicode="&#xd0;" horiz-adv-x="1175" 
d="M117 645h-117v217h117v600h483q286 0 384.5 -175t98.5 -556t-108.5 -556t-392.5 -175h-465v645zM412 862h190v-217h-190v-428h131q76 0 124 26.5t84.5 108t36.5 372.5t-46 406t-205 115h-125v-383z" />
    <glyph glyph-name="Ntilde" unicode="&#xd1;" horiz-adv-x="1175" 
d="M803 461v1001h270v-1462h-336l-360 1024h-4v-1024h-271v1462h340l357 -1001h4zM450 1821q68 0 99 -15l98 -43q31 -12 61 -12t44 27t14 47h147q-10 -111 -61 -183t-129 -71q-47 1 -131 35q-85 34 -113 34q-51 0 -65 -73h-144q16 123 64 189t116 65z" />
    <glyph glyph-name="Ograve" unicode="&#xd2;" horiz-adv-x="1138" 
d="M570 188q126 0 166 124q36 106 36 418q0 311 -29 398q-29 86 -69 116t-105 30t-105 -30q-77 -59 -90 -263q-7 -103 -7 -332q1 -229 29 -315t68 -116t106 -30zM72 731q0 166 15 306q31 289 218 398q98 56 264 56q305 0 415 -213q52 -100 68 -240t15 -307q0 -166 -15 -306
q-16 -141 -68 -241t-150 -156t-264 -56t-265 56q-185 107 -218 397q-15 140 -15 306zM504 1548l-201 295h283l110 -295h-192z" />
    <glyph glyph-name="Oacute" unicode="&#xd3;" horiz-adv-x="1138" 
d="M570 188q126 0 166 124q36 106 36 418q0 311 -29 398q-29 86 -69 116t-105 30t-105 -30q-77 -59 -90 -263q-7 -103 -7 -332q1 -229 29 -315t68 -116t106 -30zM72 731q0 166 15 306q31 289 218 398q98 56 264 56q305 0 415 -213q52 -100 68 -240t15 -307q0 -166 -15 -306
q-16 -141 -68 -241t-150 -156t-264 -56t-265 56q-185 107 -218 397q-15 140 -15 306zM575 1843h283l-201 -295h-192z" />
    <glyph glyph-name="Ocircumflex" unicode="&#xd4;" horiz-adv-x="1138" 
d="M570 188q126 0 166 124q36 106 36 418q0 311 -29 398q-29 86 -69 116t-105 30t-105 -30q-77 -59 -90 -263q-7 -103 -7 -332q1 -229 29 -315t68 -116t106 -30zM72 731q0 166 15 306q31 289 218 398q98 56 264 56q305 0 415 -213q52 -100 68 -240t15 -307q0 -166 -15 -306
q-16 -141 -68 -241t-150 -156t-264 -56t-265 56q-185 107 -218 397q-15 140 -15 306zM426 1843h295l160 -295h-217l-95 174l-98 -174h-205z" />
    <glyph glyph-name="Otilde" unicode="&#xd5;" horiz-adv-x="1138" 
d="M570 188q126 0 166 124q36 106 36 418q0 311 -29 398q-29 86 -69 116t-105 30t-105 -30q-77 -59 -90 -263q-7 -103 -7 -332q1 -229 29 -315t68 -116t106 -30zM72 731q0 166 15 306q31 289 218 398q98 56 264 56q305 0 415 -213q52 -100 68 -240t15 -307q0 -166 -15 -306
q-16 -141 -68 -241t-150 -156t-264 -56t-265 56q-185 107 -218 397q-15 140 -15 306zM684 1751q30 0 43 27q14 27 14 47h148q-9 -111 -61 -183t-130 -71q-44 -1 -103 23t-87 35t-53 11q-51 0 -66 -73h-143q33 254 190 254q57 0 88 -15l99 -43q31 -12 61 -12z" />
    <glyph glyph-name="Odieresis" unicode="&#xd6;" horiz-adv-x="1138" 
d="M570 188q126 0 166 124q36 106 36 418q0 311 -29 398q-29 86 -69 116t-105 30t-105 -30q-77 -59 -90 -263q-7 -103 -7 -332q1 -229 29 -315t68 -116t106 -30zM72 731q0 166 15 306q31 289 218 398q98 56 264 56q305 0 415 -213q52 -100 68 -240t15 -307q0 -166 -15 -306
q-16 -141 -68 -241t-150 -156t-264 -56t-265 56q-185 107 -218 397q-15 140 -15 306zM281 1817h229v-242h-229v242zM633 1817h229v-242h-229v242z" />
    <glyph glyph-name="multiply" unicode="&#xd7;" horiz-adv-x="1228" 
d="M440 518l-319 318l176 176l317 -320l318 320l176 -176l-320 -318l320 -317l-176 -176l-318 319l-317 -319l-176 176z" />
    <glyph glyph-name="Oslash" unicode="&#xd8;" horiz-adv-x="1138" 
d="M367 696q0 -183 12 -268h4l330 772q-47 74 -144 74q-66 0 -105.5 -30t-61 -95.5t-28.5 -167.5t-7 -285zM569 188q126 0 164.5 115.5t38.5 378.5t-12 352h-4l-330 -770q39 -76 143 -76zM72 760q0 361 97 546t400 185q150 0 248 -49l53 125l99 -43l-62 -144
q134 -124 147 -332t13 -346q0 -358 -96.5 -544.5t-401.5 -186.5q-154 0 -247 49l-54 -124l-98 43l61 143q-133 123 -146 332t-13 346z" />
    <glyph glyph-name="Ugrave" unicode="&#xd9;" horiz-adv-x="1101" 
d="M379 1462v-1020q1 -123 27 -169t59 -65q33 -20 85 -20t86 20q87 50 87 234v1020h295v-1020q0 -258 -144 -374q-121 -97 -327 -97q-207 0 -320 89q-143 113 -143 382v1020h295zM489 1548l-200 295h282l111 -295h-193z" />
    <glyph glyph-name="Uacute" unicode="&#xda;" horiz-adv-x="1101" 
d="M379 1462v-1020q1 -123 27 -169t59 -65q33 -20 85 -20t86 20q87 50 87 234v1020h295v-1020q0 -258 -144 -374q-121 -97 -327 -97q-207 0 -320 89q-143 113 -143 382v1020h295zM561 1843h283l-201 -295h-192z" />
    <glyph glyph-name="Ucircumflex" unicode="&#xdb;" horiz-adv-x="1101" 
d="M379 1462v-1020q1 -123 27 -169t59 -65q33 -20 85 -20t86 20q87 50 87 234v1020h295v-1020q0 -258 -144 -374q-121 -97 -327 -97q-207 0 -320 89q-143 113 -143 382v1020h295zM406 1843h294l160 -295h-217l-94 174l-98 -174h-205z" />
    <glyph glyph-name="Udieresis" unicode="&#xdc;" horiz-adv-x="1101" 
d="M379 1462v-1020q1 -123 27 -169t59 -65q33 -20 85 -20t86 20q87 50 87 234v1020h295v-1020q0 -258 -144 -374q-121 -97 -327 -97q-207 0 -320 89q-143 113 -143 382v1020h295zM260 1817h229v-242h-229v242zM612 1817h230v-242h-230v242z" />
    <glyph glyph-name="Yacute" unicode="&#xdd;" horiz-adv-x="1064" 
d="M680 0h-295v575l-379 887h332l192 -565h5l204 565h320l-379 -887v-575zM553 1847h283l-201 -295h-193z" />
    <glyph glyph-name="Thorn" unicode="&#xde;" horiz-adv-x="1062" 
d="M102 1462h295v-262h221q209 0 305.5 -126.5t96.5 -311.5q0 -329 -180.5 -384.5t-284.5 -55.5h-158v-322h-295v1462zM397 539h131q88 0 142.5 53t54.5 165t-47 169t-158 57h-123v-444z" />
    <glyph glyph-name="germandbls" unicode="&#xdf;" horiz-adv-x="1024" 
d="M504 920q135 0 135 189t-135 189q-84 0 -110.5 -63.5t-26.5 -161.5v-1073h-283v1079q0 217 105.5 314.5t315.5 97.5q417 0 417 -350q0 -118 -29 -169.5t-64.5 -80.5t-89.5 -51v-4q123 -20 175.5 -124t52.5 -270q0 -304 -125 -379t-229 -75t-148 8v192q18 -8 58 -8
q90 0 125.5 72t35.5 206t-35 201.5t-129 67.5h-51v193h35z" />
    <glyph glyph-name="agrave" unicode="&#xe0;" horiz-adv-x="985" 
d="M434 164q70 0 116 39q58 45 58 131v217q-49 -39 -128 -56q-152 -33 -152 -182t106 -149zM338 -29q-150 0 -221 103q-58 84 -59 187q-2 176 63 253t215 117l160 43q63 16 88 45q24 29 24 88q-1 131 -131 131q-67 0 -99 -39t-32 -104v-31h-254v27q0 177 114 265
q96 74 247 74t230 -24t122 -70q72 -75 74 -243v-580q0 -130 34 -213h-270q-14 26 -35 115h-4q-49 -86 -114 -115q-64 -29 -152 -29zM438 1233l-200 295h282l111 -295h-193z" />
    <glyph glyph-name="aacute" unicode="&#xe1;" horiz-adv-x="985" 
d="M434 164q70 0 116 39q58 45 58 131v217q-49 -39 -128 -56q-152 -33 -152 -182t106 -149zM338 -29q-150 0 -221 103q-58 84 -59 187q-2 176 63 253t215 117l160 43q63 16 88 45q24 29 24 88q-1 131 -131 131q-67 0 -99 -39t-32 -104v-31h-254v27q0 177 114 265
q96 74 247 74t230 -24t122 -70q72 -75 74 -243v-580q0 -130 34 -213h-270q-14 26 -35 115h-4q-49 -86 -114 -115q-64 -29 -152 -29zM500 1528h282l-200 -295h-193z" />
    <glyph glyph-name="acircumflex" unicode="&#xe2;" horiz-adv-x="985" 
d="M434 164q70 0 116 39q58 45 58 131v217q-49 -39 -128 -56q-152 -33 -152 -182t106 -149zM338 -29q-150 0 -221 103q-58 84 -59 187q-2 176 63 253t215 117l160 43q63 16 88 45q24 29 24 88q-1 131 -131 131q-67 0 -99 -39t-32 -104v-31h-254v27q0 177 114 265
q96 74 247 74t230 -24t122 -70q72 -75 74 -243v-580q0 -130 34 -213h-270q-14 26 -35 115h-4q-49 -86 -114 -115q-64 -29 -152 -29zM344 1528h295l160 -295h-217l-95 174l-98 -174h-205z" />
    <glyph glyph-name="atilde" unicode="&#xe3;" horiz-adv-x="985" 
d="M434 164q70 0 116 39q58 45 58 131v217q-49 -39 -128 -56q-152 -33 -152 -182t106 -149zM338 -29q-150 0 -221 103q-58 84 -59 187q-2 176 63 253t215 117l160 43q63 16 88 45q24 29 24 88q-1 131 -131 131q-67 0 -99 -39t-32 -104v-31h-254v27q0 177 114 265
q96 74 247 74t230 -24t122 -70q72 -75 74 -243v-580q0 -130 34 -213h-270q-14 26 -35 115h-4q-49 -86 -114 -115q-64 -29 -152 -29zM612 1436q30 0 43 26q14 26 15 47h147q-10 -111 -61 -183t-129 -71q-48 0 -191 59q-29 11 -53 11q-51 0 -66 -74h-143q33 256 191 254
q57 0 88 -14l98 -43q31 -12 61 -12z" />
    <glyph glyph-name="adieresis" unicode="&#xe4;" horiz-adv-x="985" 
d="M434 164q70 0 116 39q58 45 58 131v217q-49 -39 -128 -56q-152 -33 -152 -182t106 -149zM338 -29q-150 0 -221 103q-58 84 -59 187q-2 176 63 253t215 117l160 43q63 16 88 45q24 29 24 88q-1 131 -131 131q-67 0 -99 -39t-32 -104v-31h-254v27q0 177 114 265
q96 74 247 74t230 -24t122 -70q72 -75 74 -243v-580q0 -130 34 -213h-270q-14 26 -35 115h-4q-49 -86 -114 -115q-64 -29 -152 -29zM203 1501h229v-241h-229v241zM555 1501h229v-241h-229v241z" />
    <glyph glyph-name="aring" unicode="&#xe5;" horiz-adv-x="985" 
d="M434 164q70 0 116 39q58 45 58 131v217q-49 -39 -128 -56q-152 -33 -152 -182t106 -149zM338 -29q-150 0 -221 103q-58 84 -59 187q-2 176 63 253t215 117l160 43q63 16 88 45q24 29 24 88q-1 131 -131 131q-67 0 -99 -39t-32 -104v-31h-254v27q0 177 114 265
q96 74 247 74t230 -24t122 -70q72 -75 74 -243v-580q0 -130 34 -213h-270q-14 26 -35 115h-4q-49 -86 -114 -115q-64 -29 -152 -29zM484 1192q-98 0 -164 60t-66 160q0 101 68 164q68 62 164 62t162 -62q67 -62 68 -164q1 -100 -67 -160t-165 -60zM369 1413q-1 -49 33 -83
t83 -34t83 34t34 83t-34 83t-83 34t-83 -34t-33 -83z" />
    <glyph glyph-name="ae" unicode="&#xe6;" horiz-adv-x="1478" 
d="M432 164q111 0 142.5 61.5t31.5 108.5v217q-49 -39 -128 -56q-152 -33 -152 -182t106 -149zM1012 938q-109 0 -126.5 -90t-17.5 -129v-43h285q-4 129 -29.5 195.5t-111.5 66.5zM762 999q64 131 276 131q213 0 299 -138t86 -421v-63h-555v-88q0 -174 49.5 -215t88.5 -41
q70 0 102.5 51t44.5 156h254q-8 -193 -103.5 -296.5t-293.5 -103.5q-260 0 -332 191q-64 -118 -142.5 -154.5t-183.5 -36.5q-104 0 -155.5 29t-96.5 95.5t-45 167.5q0 102 16.5 158t63.5 111.5t199 98.5l160 43q63 16 87.5 45t24.5 88q0 131 -131 131q-66 0 -98.5 -39
t-32.5 -104v-31h-254v27q0 177 105 258t282 81q111 0 175.5 -27.5t109.5 -103.5z" />
    <glyph glyph-name="ccedilla" unicode="&#xe7;" horiz-adv-x="948" 
d="M53 511q0 210 33 321.5t116 204.5t289 93t305 -114.5t99 -310.5h-270q0 221 -127 221q-100 0 -131 -87t-31 -239q0 -264 30 -350t112 -86q81 0 114 61.5t33 196.5h270q0 -216 -90 -324t-270 -125l-60 -92q29 10 65 10q75 0 127 -39t48 -108q0 -92 -66.5 -140t-198.5 -48
t-198 38l39 95q59 -31 122 -31q122 0 122 64.5t-91 68.5q-37 0 -69 -12l-45 41l98 153q-69 4 -139 27q-236 87 -236 511z" />
    <glyph glyph-name="egrave" unicode="&#xe8;" horiz-adv-x="948" 
d="M481 938q-108 0 -138 -141q-7 -39 -7 -78v-43h289q-4 135 -25 181q-20 45 -48 63t-71 18zM336 508v-88q0 -175 74 -235q27 -22 65 -21q72 0 105 51t45 156h254q-9 -193 -103 -296t-297 -104q-273 0 -366 192q-41 85 -51 190q-9 105 -9 212q0 257 77 391q100 174 347 174
t340 -152q78 -127 78 -407v-63h-559zM426 1233l-201 295h283l110 -295h-192z" />
    <glyph glyph-name="eacute" unicode="&#xe9;" horiz-adv-x="948" 
d="M481 938q-108 0 -138 -141q-7 -39 -7 -78v-43h289q-4 135 -25 181q-20 45 -48 63t-71 18zM336 508v-88q0 -175 74 -235q27 -22 65 -21q72 0 105 51t45 156h254q-9 -193 -103 -296t-297 -104q-273 0 -366 192q-41 85 -51 190q-9 105 -9 212q0 257 77 391q100 174 347 174
t340 -152q78 -127 78 -407v-63h-559zM500 1528h282l-200 -295h-193z" />
    <glyph glyph-name="ecircumflex" unicode="&#xea;" horiz-adv-x="948" 
d="M481 938q-108 0 -138 -141q-7 -39 -7 -78v-43h289q-4 135 -25 181q-20 45 -48 63t-71 18zM336 508v-88q0 -175 74 -235q27 -22 65 -21q72 0 105 51t45 156h254q-9 -193 -103 -296t-297 -104q-273 0 -366 192q-41 85 -51 190q-9 105 -9 212q0 257 77 391q100 174 347 174
t340 -152q78 -127 78 -407v-63h-559zM344 1528h295l160 -295h-217l-95 174l-98 -174h-205z" />
    <glyph glyph-name="edieresis" unicode="&#xeb;" horiz-adv-x="948" 
d="M481 938q-108 0 -138 -141q-7 -39 -7 -78v-43h289q-4 135 -25 181q-20 45 -48 63t-71 18zM336 508v-88q0 -175 74 -235q27 -22 65 -21q72 0 105 51t45 156h254q-9 -193 -103 -296t-297 -104q-273 0 -366 192q-41 85 -51 190q-9 105 -9 212q0 257 77 391q100 174 347 174
t340 -152q78 -127 78 -407v-63h-559zM201 1501h229v-241h-229v241zM553 1501h229v-241h-229v241z" />
    <glyph glyph-name="igrave" unicode="&#xec;" horiz-adv-x="491" 
d="M104 1102h283v-1102h-283v1102zM193 1233l-201 295h282l111 -295h-192z" />
    <glyph glyph-name="iacute" unicode="&#xed;" horiz-adv-x="491" 
d="M104 1102h283v-1102h-283v1102zM215 1528h283l-201 -295h-193z" />
    <glyph glyph-name="icircumflex" unicode="&#xee;" horiz-adv-x="491" 
d="M104 1102h283v-1102h-283v1102zM100 1528h295l160 -295h-217l-94 174l-99 -174h-204z" />
    <glyph glyph-name="idieresis" unicode="&#xef;" horiz-adv-x="491" 
d="M104 1102h283v-1102h-283v1102zM-45 1501h229v-241h-229v241zM307 1501h230v-241h-230v241z" />
    <glyph glyph-name="eth" unicode="&#xf0;" 
d="M368 253q28 -89 119 -89t123.5 87t32.5 281t-32.5 279.5t-118.5 85.5q-135 0 -143.5 -142t-8.5 -277q0 -136 28 -225zM926 474.5q0 -217.5 -101 -360.5t-339 -145q-239 -2 -334 139t-95 443q0 392 131 465.5t217 73.5t152 -54l4 4q-67 106 -188 246l-158 -92l-80 86
l156 92q-71 71 -135 131l213 125q74 -66 137 -129l153 92l89 -86l-158 -92q257 -282 296.5 -501.5t39.5 -437z" />
    <glyph glyph-name="ntilde" unicode="&#xf1;" horiz-adv-x="1024" 
d="M930 817v-817h-283v760q0 86 -29 120t-92 33q-150 0 -149 -182v-731h-283v1102h271v-129h4q87 159 280 157q281 0 281 -313zM614 1436q30 0 43 26q14 26 15 47h147q-10 -111 -61 -183t-129 -71q-48 0 -191 59q-29 11 -53 11q-51 0 -66 -74h-143q33 256 191 254
q57 0 88 -14l98 -43q31 -12 61 -12z" />
    <glyph glyph-name="ograve" unicode="&#xf2;" 
d="M492 164q86 0 118 90t33 297q0 207 -33 297t-123 90t-123 -109q-24 -82 -24 -281t20 -263q20 -65 49 -93q30 -28 83 -28zM57 548q0 297 101 440t334 142q245 4 338 -136q94 -140 95 -438q1 -299 -100 -442t-339 -145q-239 -2 -334 140t-95 439zM420 1233l-201 295h283
l110 -295h-192z" />
    <glyph glyph-name="oacute" unicode="&#xf3;" 
d="M492 164q86 0 118 90t33 297q0 207 -33 297t-123 90t-123 -109q-24 -82 -24 -281t20 -263q20 -65 49 -93q30 -28 83 -28zM57 548q0 297 101 440t334 142q245 4 338 -136q94 -140 95 -438q1 -299 -100 -442t-339 -145q-239 -2 -334 140t-95 439zM502 1528h282l-200 -295
h-193z" />
    <glyph glyph-name="ocircumflex" unicode="&#xf4;" 
d="M492 164q86 0 118 90t33 297q0 207 -33 297t-123 90t-123 -109q-24 -82 -24 -281t20 -263q20 -65 49 -93q30 -28 83 -28zM57 548q0 297 101 440t334 142q245 4 338 -136q94 -140 95 -438q1 -299 -100 -442t-339 -145q-239 -2 -334 140t-95 439zM344 1528h295l160 -295
h-217l-95 174l-98 -174h-205z" />
    <glyph glyph-name="otilde" unicode="&#xf5;" 
d="M492 164q86 0 118 90t33 297q0 207 -33 297t-123 90t-123 -109q-24 -82 -24 -281t20 -263q20 -65 49 -93q30 -28 83 -28zM57 548q0 297 101 440t334 142q245 4 338 -136q94 -140 95 -438q1 -299 -100 -442t-339 -145q-239 -2 -334 140t-95 439zM608 1436q30 0 43 26
q14 26 15 47h147q-10 -111 -61 -183t-129 -71q-48 0 -191 59q-29 11 -53 11q-51 0 -66 -74h-143q33 256 190 254q57 0 89 -14l98 -43q31 -12 61 -12z" />
    <glyph glyph-name="odieresis" unicode="&#xf6;" 
d="M492 164q86 0 118 90t33 297q0 207 -33 297t-123 90t-123 -109q-24 -82 -24 -281t20 -263q20 -65 49 -93q30 -28 83 -28zM57 548q0 297 101 440t334 142q245 4 338 -136q94 -140 95 -438q1 -299 -100 -442t-339 -145q-239 -2 -334 140t-95 439zM201 1501h229v-241h-229
v241zM553 1501h229v-241h-229v241z" />
    <glyph glyph-name="divide" unicode="&#xf7;" horiz-adv-x="1228" 
d="M96 645h1037v-254h-1037v254zM416 952q0 86 56 142.5t142 56.5t142.5 -56.5t56.5 -142.5t-56.5 -142t-142.5 -56t-142 56t-56 142zM416 84q0 86 56 142.5t142 56.5t142.5 -56.5t56.5 -142.5t-56.5 -142.5t-142.5 -56.5t-142 56.5t-56 142.5z" />
    <glyph glyph-name="oslash" unicode="&#xf8;" 
d="M340 461q0 -44 4 -80h4l252 487q-33 70 -97 70t-94 -28.5t-49.5 -93.5t-19.5 -265v-90zM643 496q0 152 -4 223h-4l-254 -488q33 -67 115 -67t114.5 90t32.5 242zM57 536q0 310 100.5 452t334.5 142q137 2 223 -43l69 134l90 -47l-75 -144q72 -70 99.5 -189t27.5 -275
q0 -310 -101 -452.5t-333 -142.5q-139 -4 -224 43l-69 -133l-90 47l75 144q-72 70 -99.5 189t-27.5 275z" />
    <glyph glyph-name="ugrave" unicode="&#xf9;" horiz-adv-x="1024" 
d="M94 285v817h283v-760q0 -86 29 -120t92 -34q150 0 149 183v731h283v-1102h-271v129h-4q-87 -158 -280 -158q-281 0 -281 314zM446 1233l-200 295h282l111 -295h-193z" />
    <glyph glyph-name="uacute" unicode="&#xfa;" horiz-adv-x="1024" 
d="M94 285v817h283v-760q0 -86 29 -120t92 -34q150 0 149 183v731h283v-1102h-271v129h-4q-87 -158 -280 -158q-281 0 -281 314zM520 1528h283l-201 -295h-192z" />
    <glyph glyph-name="ucircumflex" unicode="&#xfb;" horiz-adv-x="1024" 
d="M94 285v817h283v-760q0 -86 29 -120t92 -34q150 0 149 183v731h283v-1102h-271v129h-4q-87 -158 -280 -158q-281 0 -281 314zM365 1528h294l160 -295h-217l-94 174l-98 -174h-205z" />
    <glyph glyph-name="udieresis" unicode="&#xfc;" horiz-adv-x="1024" 
d="M94 285v817h283v-760q0 -86 29 -120t92 -34q150 0 149 183v731h283v-1102h-271v129h-4q-87 -158 -280 -158q-281 0 -281 314zM221 1501h230v-241h-230v241zM573 1501h230v-241h-230v241z" />
    <glyph glyph-name="yacute" unicode="&#xfd;" horiz-adv-x="909" 
d="M168 -156q78 0 112 41t39 115l-309 1102h295l164 -762h4l143 762h283l-266 -1028q-13 -78 -59 -196t-92 -164t-110 -60t-163 -14h-115v210q37 -6 74 -6zM475 1528h283l-201 -295h-192z" />
    <glyph glyph-name="thorn" unicode="&#xfe;" horiz-adv-x="1024" 
d="M377 551q0 -180 27.5 -271.5t120.5 -91.5t121 91.5t28 271.5t-28 271t-121 91t-120.5 -91t-27.5 -271zM618 -29q-146 0 -237 131h-4v-462h-283v1822h283v-477h4q37 78 94 111.5t143 33.5q174 0 256 -136t82 -443t-81.5 -443.5t-256.5 -136.5z" />
    <glyph glyph-name="ydieresis" unicode="&#xff;" horiz-adv-x="909" 
d="M168 -156q78 0 112 41t39 115l-309 1102h295l164 -762h4l143 762h283l-266 -1028q-13 -78 -59 -196t-92 -164t-110 -60t-163 -14h-115v210q37 -6 74 -6zM182 1501h230v-241h-230v241zM535 1501h229v-241h-229v241z" />
    <glyph glyph-name="Amacron" unicode="&#x100;" horiz-adv-x="1138" 
d="M387 1462h365l387 -1462h-308l-67 309h-389l-68 -309h-307zM426 551h287l-142 657h-4zM870 1774v-156h-602v156h602z" />
    <glyph glyph-name="amacron" unicode="&#x101;" horiz-adv-x="985" 
d="M434 164q70 0 116 39q58 45 58 131v217q-49 -39 -128 -56q-152 -33 -152 -182t106 -149zM338 -29q-150 0 -221 103q-58 84 -59 187q-2 176 63 253t215 117l160 43q63 16 88 45q24 29 24 88q-1 131 -131 131q-67 0 -99 -39t-32 -104v-31h-254v27q0 177 114 265
q96 74 247 74t230 -24t122 -70q72 -75 74 -243v-580q0 -130 34 -213h-270q-14 26 -35 115h-4q-49 -86 -114 -115q-64 -29 -152 -29zM799 1458v-155h-602v155h602z" />
    <glyph glyph-name="Abreve" unicode="&#x102;" horiz-adv-x="1138" 
d="M387 1462h365l387 -1462h-308l-67 309h-389l-68 -309h-307zM426 551h287l-142 657h-4zM569 1708q59 0 103 37q43 37 49 96h133q0 -179 -147 -259q-55 -30 -139 -30q-147 0 -224 104q-59 79 -59 185h133q6 -59 49 -96t102 -37z" />
    <glyph glyph-name="abreve" unicode="&#x103;" horiz-adv-x="985" 
d="M434 164q70 0 116 39q58 45 58 131v217q-49 -39 -128 -56q-152 -33 -152 -182t106 -149zM338 -29q-150 0 -221 103q-58 84 -59 187q-2 176 63 253t215 117l160 43q63 16 88 45q24 29 24 88q-1 131 -131 131q-67 0 -99 -39t-32 -104v-31h-254v27q0 177 114 265
q96 74 247 74t230 -24t122 -70q72 -75 74 -243v-580q0 -130 34 -213h-270q-14 26 -35 115h-4q-49 -86 -114 -115q-64 -29 -152 -29zM500 1393q60 0 102 37q43 37 49 96h133q0 -106 -59 -186q-77 -103 -225 -103q-147 0 -226 103q-59 79 -59 186h133q6 -59 49 -96t103 -37z
" />
    <glyph glyph-name="Aogonek" unicode="&#x104;" horiz-adv-x="1138" 
d="M426 551h287l-142 657h-4zM782 -444q-202 0 -202 164q0 73 67.5 150t183.5 130l-67 309h-389l-68 -309h-307l387 1462h365l387 -1462h-170q-119 -89 -155 -132.5t-44 -68t-8 -49.5q0 -63 59 -63t127 41l62 -101q-99 -71 -228 -71z" />
    <glyph glyph-name="aogonek" unicode="&#x105;" horiz-adv-x="985" 
d="M434 164q111 0 142.5 61.5t31.5 108.5v217q-49 -39 -128 -56q-152 -33 -152 -182t106 -149zM633 -444q-182 0 -182 161q0 130 190 283q-17 39 -33 115h-4q-49 -86 -113.5 -115t-152.5 -29q-152 0 -216.5 95.5t-64.5 196.5q0 102 16.5 158t63.5 111.5t199 98.5l160 43
q63 16 87.5 45t24.5 88q0 131 -131 131q-66 0 -98.5 -39t-32.5 -104v-31h-254v27q0 177 105 258t256 81t230 -24.5t137.5 -85.5t58.5 -227v-580q0 -130 34 -213h-135q-164 -152 -164 -250q0 -63 53 -63t115 41l56 -101q-92 -71 -205 -71z" />
    <glyph glyph-name="Cacute" unicode="&#x106;" horiz-adv-x="1099" 
d="M727 969q0 161 -38 233t-142 72t-142 -123t-38 -365t11 -344q21 -193 94 -234q75 -39 156 -6q111 42 111 357h295q0 -273 -87 -413q-108 -175 -378 -175q-303 0 -414 213q-51 100 -67 240t-16 307q0 166 15 306q31 289 218 398q98 56 260 56t253 -51q166 -93 193 -300
q11 -91 11 -171h-295zM565 1843h283l-201 -295h-192z" />
    <glyph glyph-name="cacute" unicode="&#x107;" horiz-adv-x="948" 
d="M625 705q0 218 -127 221q-100 0 -131 -88t-31 -296t29 -288q31 -92 122 -90q72 0 105 61t33 197h270q0 -217 -97 -334t-319 -117t-324 130t-102 450q0 469 266 553q82 27 181 26q197 0 296 -114t99 -311h-270zM502 1528h282l-200 -295h-193z" />
    <glyph glyph-name="Ccircumflex" unicode="&#x108;" horiz-adv-x="1099" 
d="M727 969q0 161 -38 233t-142 72t-142 -123t-38 -365t11 -344q21 -193 94 -234q75 -39 156 -6q111 42 111 357h295q0 -273 -87 -413q-108 -175 -378 -175q-303 0 -414 213q-51 100 -67 240t-16 307q0 166 15 306q31 289 218 398q98 56 260 56t253 -51q166 -93 193 -300
q11 -91 11 -171h-295zM418 1843h295l159 -295h-217l-94 174l-98 -174h-205z" />
    <glyph glyph-name="ccircumflex" unicode="&#x109;" horiz-adv-x="948" 
d="M625 705q0 218 -127 221q-100 0 -131 -88t-31 -296t29 -288q31 -92 122 -90q72 0 105 61t33 197h270q0 -217 -97 -334t-319 -117t-324 130t-102 450q0 469 266 553q82 27 181 26q197 0 296 -114t99 -311h-270zM348 1528h295l160 -295h-217l-94 174l-99 -174h-205z" />
    <glyph glyph-name="Cdotaccent" unicode="&#x10a;" horiz-adv-x="1099" 
d="M727 969q0 161 -38 233t-142 72t-142 -123t-38 -365t11 -344q21 -193 94 -234q75 -39 156 -6q111 42 111 357h295q0 -273 -87 -413q-108 -175 -378 -175q-303 0 -414 213q-51 100 -67 240t-16 307q0 166 15 306q31 289 218 398q98 56 260 56t253 -51q166 -93 193 -300
q11 -91 11 -171h-295zM678 1817v-242h-229v242h229z" />
    <glyph glyph-name="cdotaccent" unicode="&#x10b;" horiz-adv-x="948" 
d="M625 705q0 218 -127 221q-100 0 -131 -88t-31 -296t29 -288q31 -92 122 -90q72 0 105 61t33 197h270q0 -217 -97 -334t-319 -117t-324 130t-102 450q0 469 266 553q82 27 181 26q197 0 296 -114t99 -311h-270zM606 1501v-241h-229v241h229z" />
    <glyph glyph-name="Ccaron" unicode="&#x10c;" horiz-adv-x="1099" 
d="M727 969q0 161 -38 233t-142 72t-142 -123t-38 -365t11 -344q21 -193 94 -234q75 -39 156 -6q111 42 111 357h295q0 -273 -87 -413q-108 -175 -378 -175q-303 0 -414 213q-51 100 -67 240t-16 307q0 166 15 306q31 289 218 398q98 56 260 56t253 -51q166 -93 193 -300
q11 -91 11 -171h-295zM256 1843h217l94 -174l99 174h204l-159 -295h-295z" />
    <glyph glyph-name="ccaron" unicode="&#x10d;" horiz-adv-x="948" 
d="M625 705q0 218 -127 221q-100 0 -131 -88t-31 -296t29 -288q31 -92 122 -90q72 0 105 61t33 197h270q0 -217 -97 -334t-319 -117t-324 130t-102 450q0 469 266 553q82 27 181 26q197 0 296 -114t99 -311h-270zM190 1528h218l94 -174l98 174h205l-160 -295h-295z" />
    <glyph glyph-name="Dcaron" unicode="&#x10e;" horiz-adv-x="1175" 
d="M117 1462h483q286 0 394 -193q89 -159 89 -538t-108 -555t-393 -176h-465v1462zM412 217h131q148 0 199 115q46 100 46 392t-42 394q-52 127 -209 127h-125v-1028zM217 1843h217l94 -174l99 174h204l-159 -295h-295z" />
    <glyph glyph-name="dcaron" unicode="&#x10f;" horiz-adv-x="1243" 
d="M350 551q0 -180 28 -271q28 -92 121 -92t121 92t27 271q0 180 -27 271q-28 91 -121 91t-121 -91t-28 -271zM659 117h-4q-47 -78 -105 -112t-144 -34q-174 1 -256 137t-82 443t82 443t243 136t250 -131h4v463h283v-1462h-271v117zM1075 1462h246l-129 -295h-184z" />
    <glyph glyph-name="Dcroat" unicode="&#x110;" horiz-adv-x="1175" 
d="M117 645h-117v217h117v600h483q286 0 384.5 -175t98.5 -556t-108.5 -556t-392.5 -175h-465v645zM412 862h190v-217h-190v-428h131q76 0 124 26.5t84.5 108t36.5 372.5t-46 406t-205 115h-125v-383z" />
    <glyph glyph-name="dcroat" unicode="&#x111;" horiz-adv-x="1105" 
d="M350 551q0 -180 28 -271.5t121 -91.5t120.5 91.5t27.5 271.5t-27.5 271t-120.5 91t-121 -91t-28 -271zM392 1130q161 0 251 -131h4v201h-225v125h225v137h283v-137h176v-125h-176v-1200h-271v117h-4q-47 -78 -105 -112t-144 -34q-174 0 -256 136.5t-82 443.5t81.5 443
t242.5 136z" />
    <glyph glyph-name="Emacron" unicode="&#x112;" horiz-adv-x="985" 
d="M920 1462v-241h-523v-344h492v-242h-492v-393h543v-242h-838v1462h818zM815 1774v-156h-602v156h602z" />
    <glyph glyph-name="emacron" unicode="&#x113;" horiz-adv-x="948" 
d="M481 938q-108 0 -138 -141q-7 -39 -7 -78v-43h289q-4 135 -25 181q-20 45 -48 63t-71 18zM336 508v-88q0 -175 74 -235q27 -22 65 -21q72 0 105 51t45 156h254q-9 -193 -103 -296t-297 -104q-273 0 -366 192q-41 85 -51 190q-9 105 -9 212q0 257 77 391q100 174 347 174
t340 -152q78 -127 78 -407v-63h-559zM786 1458v-155h-602v155h602z" />
    <glyph glyph-name="Ebreve" unicode="&#x114;" horiz-adv-x="985" 
d="M920 1462v-241h-523v-344h492v-242h-492v-393h543v-242h-838v1462h818zM506 1708q60 0 102 37q43 37 49 96h134q0 -105 -60 -185q-78 -104 -225 -104t-225 104q-60 80 -60 185h133q6 -59 49 -96t103 -37z" />
    <glyph glyph-name="ebreve" unicode="&#x115;" horiz-adv-x="948" 
d="M481 938q-108 0 -138 -141q-7 -39 -7 -78v-43h289q-4 135 -25 181q-20 45 -48 63t-71 18zM336 508v-88q0 -175 74 -235q27 -22 65 -21q72 0 105 51t45 156h254q-9 -193 -103 -296t-297 -104q-273 0 -366 192q-41 85 -51 190q-9 105 -9 212q0 257 77 391q100 174 347 174
t340 -152q78 -127 78 -407v-63h-559zM485 1393q59 0 103 37q43 37 49 96h133q0 -106 -59 -186q-77 -103 -225 -103q-147 0 -226 103q-59 79 -59 186h133q6 -59 49 -96t102 -37z" />
    <glyph glyph-name="Edotaccent" unicode="&#x116;" horiz-adv-x="985" 
d="M920 1462v-241h-523v-344h492v-242h-492v-393h543v-242h-838v1462h818zM631 1817v-242h-230v242h230z" />
    <glyph glyph-name="edotaccent" unicode="&#x117;" horiz-adv-x="948" 
d="M481 938q-108 0 -138 -141q-7 -39 -7 -78v-43h289q-4 135 -25 181q-20 45 -48 63t-71 18zM336 508v-88q0 -175 74 -235q27 -22 65 -21q72 0 105 51t45 156h254q-9 -193 -103 -296t-297 -104q-273 0 -366 192q-41 85 -51 190q-9 105 -9 212q0 257 77 391q100 174 347 174
t340 -152q78 -127 78 -407v-63h-559zM602 1501v-241h-229v241h229z" />
    <glyph glyph-name="Eogonek" unicode="&#x118;" horiz-adv-x="985" 
d="M713 -444q-203 0 -203 164q0 73 67.5 150t184.5 130h-660v1462h818v-241h-523v-344h492v-242h-492v-393h543v-242h-41q-174 -130 -190.5 -177.5t-16.5 -72.5q0 -63 59 -63t128 41l61 -101q-99 -71 -227 -71z" />
    <glyph glyph-name="eogonek" unicode="&#x119;" horiz-adv-x="948" 
d="M463.5 938q-60.5 0 -94 -64.5t-33.5 -154.5v-43h289q-4 136 -24.5 181.5t-48.5 63t-88.5 17.5zM450 -444q-202 0 -202 164q0 105 77.5 168t116.5 85q-124 1 -196 47q-124 78 -158.5 211t-34.5 287t34.5 383t404.5 229q334 0 368.5 -216t34.5 -343v-63h-559v-88
q0 -175 50 -215.5t89 -40.5q72 0 104.5 51t45.5 156h254q-10 -195 -103 -297q-57 -63 -160 -88q-41 -30 -113 -96q-73 -66 -73 -135q0 -68 59 -68t127 41l62 -101q-99 -71 -228 -71z" />
    <glyph glyph-name="Ecaron" unicode="&#x11a;" horiz-adv-x="985" 
d="M920 1462v-241h-523v-344h492v-242h-492v-393h543v-242h-838v1462h818zM211 1843h217l94 -174l99 174h204l-159 -295h-295z" />
    <glyph glyph-name="ecaron" unicode="&#x11b;" horiz-adv-x="948" 
d="M481 938q-108 0 -138 -141q-7 -39 -7 -78v-43h289q-4 135 -25 181q-20 45 -48 63t-71 18zM336 508v-88q0 -175 74 -235q27 -22 65 -21q72 0 105 51t45 156h254q-9 -193 -103 -296t-297 -104q-273 0 -366 192q-41 85 -51 190q-9 105 -9 212q0 257 77 391q100 174 347 174
t340 -152q78 -127 78 -407v-63h-559zM176 1528h217l94 -174l99 174h205l-160 -295h-295z" />
    <glyph glyph-name="Gcircumflex" unicode="&#x11c;" horiz-adv-x="1138" 
d="M88 744q0 386 110 567q110 180 367 180t363 -120t106 -343h-282q0 93 -30 146q-56 100 -138 100q-106 0 -154 -119t-47 -401q0 -282 30 -384q29 -102 69 -142t104 -40t122 63q60 63 60 171v149h-195v217h478v-788h-217v135h-5q-101 -164 -307 -164q-256 0 -353 199
q-49 98 -65 242t-16 332zM440 1843h295l160 -295h-217l-94 174l-99 -174h-204z" />
    <glyph glyph-name="gcircumflex" unicode="&#x11d;" horiz-adv-x="1024" 
d="M649 2v145h-4q-43 -61 -105 -98t-130 -37q-168 0 -253 128t-85 402t58 405q81 183 288 183q59 0 123 -32q63 -33 104 -119h4v123h271v-1047q0 -221 -106 -326t-353 -106q-180 0 -278 77q-97 77 -97 218h270q0 -77 87 -106q24 -8 51 -9q155 0 155 199zM354 604
q0 -145 5 -196q18 -179 137 -179q153 0 153 316q0 201 -32 285t-115 83q-47 0 -76 -20q-28 -20 -50 -82t-22 -207zM385 1528h295l160 -295h-217l-95 174l-98 -174h-205z" />
    <glyph glyph-name="Gbreve" unicode="&#x11e;" horiz-adv-x="1138" 
d="M88 744q0 386 110 567q110 180 367 180t363 -120t106 -343h-282q0 93 -30 146q-56 100 -138 100q-106 0 -154 -119t-47 -401q0 -282 30 -384q29 -102 69 -142t104 -40t122 63q60 63 60 171v149h-195v217h478v-788h-217v135h-5q-101 -164 -307 -164q-256 0 -353 199
q-49 98 -65 242t-16 332zM582 1708q60 0 102 37q43 37 49 96h133q0 -179 -147 -259q-55 -30 -138 -30q-147 0 -225 104q-59 79 -59 185h133q6 -59 49 -96t103 -37z" />
    <glyph glyph-name="gbreve" unicode="&#x11f;" horiz-adv-x="1024" 
d="M649 2v145h-4q-43 -61 -105 -98t-130 -37q-168 0 -253 128t-85 402t58 405q81 183 288 183q59 0 123 -32q63 -33 104 -119h4v123h271v-1047q0 -221 -106 -326t-353 -106q-180 0 -278 77q-97 77 -97 218h270q0 -77 87 -106q24 -8 51 -9q155 0 155 199zM354 604
q0 -145 5 -196q18 -179 137 -179q153 0 153 316q0 201 -32 285t-115 83q-47 0 -76 -20q-28 -20 -50 -82t-22 -207zM518 1393q59 0 103 37q43 37 49 96h133q0 -107 -60 -186q-77 -103 -224 -103t-226 103q-57 76 -60 186h134q6 -59 49 -96t102 -37z" />
    <glyph glyph-name="Gdotaccent" unicode="&#x120;" horiz-adv-x="1138" 
d="M88 744q0 386 110 567q110 180 367 180t363 -120t106 -343h-282q0 93 -30 146q-56 100 -138 100q-106 0 -154 -119t-47 -401q0 -282 30 -384q29 -102 69 -142t104 -40t122 63q60 63 60 171v149h-195v217h478v-788h-217v135h-5q-101 -164 -307 -164q-256 0 -353 199
q-49 98 -65 242t-16 332zM700 1817v-242h-229v242h229z" />
    <glyph glyph-name="gdotaccent" unicode="&#x121;" horiz-adv-x="1024" 
d="M649 2v145h-4q-43 -61 -105 -98t-130 -37q-168 0 -253 128t-85 402t58 405q81 183 288 183q59 0 123 -32q63 -33 104 -119h4v123h271v-1047q0 -221 -106 -326t-353 -106q-180 0 -278 77q-97 77 -97 218h270q0 -77 87 -106q24 -8 51 -9q155 0 155 199zM354 604
q0 -145 5 -196q18 -179 137 -179q153 0 153 316q0 201 -32 285t-115 83q-47 0 -76 -20q-28 -20 -50 -82t-22 -207zM635 1501v-241h-229v241h229z" />
    <glyph glyph-name="Gcommaaccent" unicode="&#x122;" horiz-adv-x="1138" 
d="M88 744q0 386 110 567q110 180 367 180t363 -120t106 -343h-282q0 93 -30 146q-56 100 -138 100q-106 0 -154 -119t-47 -401q0 -282 30 -384q29 -102 69 -142t104 -40t122 63q60 63 60 171v149h-195v217h478v-788h-217v135h-5q-101 -164 -307 -164q-256 0 -353 199
q-49 98 -65 242t-16 332zM690 -102v-199q0 -177 -128 -205q-36 -8 -70 -12v74q35 10 53 32t20 68h-104v242h229z" />
    <glyph glyph-name="gcommaaccent" unicode="&#x123;" horiz-adv-x="1024" 
d="M649 2v145h-4q-43 -61 -105 -98t-130 -37q-168 0 -253 128t-85 402t58 405q81 183 288 183q59 0 123 -32q63 -33 104 -119h4v123h271v-1047q0 -221 -106 -326t-353 -106q-180 0 -278 77q-97 77 -97 218h270q0 -77 87 -106q24 -8 51 -9q155 0 155 199zM354 604
q0 -145 5 -196q18 -179 137 -179q153 0 153 316q0 201 -32 285t-115 83q-47 0 -76 -20q-28 -20 -50 -82t-22 -207zM414 1221v198q0 177 128 205q36 8 70 12v-73q-35 -10 -53 -32t-20 -69h104v-241h-229z" />
    <glyph glyph-name="Hcircumflex" unicode="&#x124;" horiz-adv-x="1138" 
d="M102 1462h295v-559h344v559h295v-1462h-295v649h-344v-649h-295v1462zM424 1843h295l160 -295h-217l-95 174l-98 -174h-205z" />
    <glyph glyph-name="hcircumflex" unicode="&#x125;" horiz-adv-x="1024" 
d="M94 1462h283v-473h4q82 141 268 141q281 0 281 -313v-817h-283v760q0 86 -29 120t-92 33q-150 0 -149 -182v-731h-283v1462zM365 1843h294l160 -295h-217l-94 174l-98 -174h-205z" />
    <glyph glyph-name="Hbar" unicode="&#x126;" horiz-adv-x="1138" 
d="M741 860v178h-344v-178h344zM102 1462h295v-299h344v299h295v-1462h-295v614h-344v-614h-295v1462z" />
    <glyph glyph-name="hbar" unicode="&#x127;" horiz-adv-x="1105" 
d="M731 1130q281 0 281 -313v-817h-283v760q0 86 -28.5 119.5t-92.5 33.5q-150 0 -149 -182v-731h-283v1200h-176v125h176v137h283v-137h227v-125h-227v-211h4q82 141 268 141z" />
    <glyph glyph-name="Itilde" unicode="&#x128;" horiz-adv-x="528" 
d="M117 0v1462h295v-1462h-295zM135 1821q57 0 88 -15l99 -43q30 -12 60 -12t44 27t14 47h148q-10 -111 -62 -183t-129 -71q-44 -1 -103 23q-60 24 -88 35t-52 11q-51 0 -66 -73h-143q33 254 190 254z" />
    <glyph glyph-name="itilde" unicode="&#x129;" horiz-adv-x="491" 
d="M104 1102h283v-1102h-283v1102zM362 1436q30 0 44 26q14 27 14 47h147q-10 -111 -61 -183t-129 -71q-48 0 -191 59q-29 11 -53 11q-51 0 -65 -74h-144q33 256 191 254q57 0 88 -14l98 -43q31 -12 61 -12z" />
    <glyph glyph-name="Imacron" unicode="&#x12a;" horiz-adv-x="528" 
d="M117 0v1462h295v-1462h-295zM567 1774v-156h-602v156h602z" />
    <glyph glyph-name="imacron" unicode="&#x12b;" horiz-adv-x="491" 
d="M104 1102h283v-1102h-283v1102zM547 1458v-155h-602v155h602z" />
    <glyph glyph-name="Iogonek" unicode="&#x12e;" horiz-adv-x="528" 
d="M226 -444q-202 0 -203 164q0 73 67.5 150t183.5 130h-157v1462h295v-1462q-119 -89 -155 -132.5t-44 -68t-8 -49.5q0 -63 59 -63t127 41l62 -101q-98 -71 -227 -71z" />
    <glyph glyph-name="iogonek" unicode="&#x12f;" horiz-adv-x="491" 
d="M104 1479h283v-242h-283v242zM199 -444q-203 0 -203 164q0 73 67.5 150t184.5 130h-144v1102h283v-1102h-2q-174 -130 -190.5 -177.5t-16.5 -72.5q0 -63 59 -63t128 41l61 -101q-99 -71 -227 -71z" />
    <glyph glyph-name="Idotaccent" unicode="&#x130;" horiz-adv-x="528" 
d="M117 0v1462h295v-1462h-295zM379 1817v-242h-229v242h229z" />
    <glyph glyph-name="dotlessi" unicode="&#x131;" horiz-adv-x="491" 
d="M104 1102h283v-1102h-283v1102z" />
    <glyph glyph-name="Jcircumflex" unicode="&#x134;" horiz-adv-x="948" 
d="M858 1462v-1052q0 -233 -108 -336q-109 -102 -328 -102t-314 127q-77 102 -77 300v64h270v-45q0 -117 26 -173q25 -57 105 -57t106 56t25 174v1044h295zM561 1843h295l160 -295h-217l-94 174l-99 -174h-205z" />
    <glyph glyph-name="jcircumflex" unicode="&#x135;" horiz-adv-x="491" 
d="M-29 -156h23q70 0 90 38t20 138v1082h283v-1178q0 -70 -15 -123q-46 -161 -288 -161q-74 0 -135 4v204q12 -4 22 -4zM92 1528h295l160 -295h-217l-94 174l-99 -174h-205z" />
    <glyph glyph-name="Kcommaaccent" unicode="&#x136;" horiz-adv-x="1099" 
d="M397 1462v-585h4l373 585h320l-398 -626l443 -836h-332l-301 600l-109 -166v-434h-295v1462h295zM707 -102v-199q0 -176 -128 -205q-36 -8 -71 -12v74q35 10 53 32t21 68h-105v242h230z" />
    <glyph glyph-name="kcommaaccent" unicode="&#x137;" horiz-adv-x="1024" 
d="M387 1462v-772h4l285 412h311l-317 -434l364 -668h-311l-236 453l-100 -131v-322h-283v1462h283zM668 -102v-199q0 -176 -128 -205q-36 -8 -71 -12v74q35 10 53 32t21 68h-105v242h230z" />
    <glyph glyph-name="Lacute" unicode="&#x139;" horiz-adv-x="948" 
d="M102 0v1462h295v-1220h523v-242h-818zM254 1843h283l-201 -295h-193z" />
    <glyph glyph-name="lacute" unicode="&#x13a;" horiz-adv-x="491" 
d="M104 1462h283v-1462h-283v1462zM217 1843h283l-201 -295h-193z" />
    <glyph glyph-name="Lcommaaccent" unicode="&#x13b;" horiz-adv-x="948" 
d="M102 0v1462h295v-1220h523v-242h-818zM633 -102v-199q0 -176 -128 -205q-36 -8 -71 -12v74q35 10 53 32t21 68h-105v242h230z" />
    <glyph glyph-name="lcommaaccent" unicode="&#x13c;" horiz-adv-x="491" 
d="M104 1462h283v-1462h-283v1462zM367 -102v-199q0 -176 -128 -205q-36 -8 -71 -12v74q35 10 53 32t21 68h-105v242h230z" />
    <glyph glyph-name="Lcaron" unicode="&#x13d;" horiz-adv-x="948" 
d="M102 0v1462h295v-1220h523v-242h-818zM569 1462h246l-129 -295h-184z" />
    <glyph glyph-name="lcaron" unicode="&#x13e;" horiz-adv-x="700" 
d="M104 1462h283v-1462h-283v1462zM532 1462h246l-129 -295h-184z" />
    <glyph glyph-name="Ldot" unicode="&#x13f;" horiz-adv-x="948" 
d="M102 0v1462h295v-1220h523v-242h-818zM776 1104v-242h-229v242h229z" />
    <glyph glyph-name="ldot" unicode="&#x140;" horiz-adv-x="813" 
d="M104 1462h283v-1462h-283v1462zM731 1104v-242h-229v242h229z" />
    <glyph glyph-name="Lslash" unicode="&#x141;" horiz-adv-x="948" 
d="M102 1462h295v-536l258 161v-217l-258 -161v-467h523v-242h-818v524l-102 -63v217l102 63v721z" />
    <glyph glyph-name="lslash" unicode="&#x142;" horiz-adv-x="491" 
d="M104 1462h283v-518l129 84v-180l-129 -84v-764h-283v578l-129 -86v180l129 86v704z" />
    <glyph glyph-name="Nacute" unicode="&#x143;" horiz-adv-x="1175" 
d="M803 461v1001h270v-1462h-336l-360 1024h-4v-1024h-271v1462h340l357 -1001h4zM598 1843h283l-201 -295h-193z" />
    <glyph glyph-name="nacute" unicode="&#x144;" horiz-adv-x="1024" 
d="M930 817v-817h-283v760q0 86 -29 120t-92 33q-150 0 -149 -182v-731h-283v1102h271v-129h4q87 159 280 157q281 0 281 -313zM510 1528h283l-201 -295h-193z" />
    <glyph glyph-name="Ncommaaccent" unicode="&#x145;" horiz-adv-x="1175" 
d="M803 461v1001h270v-1462h-336l-360 1024h-4v-1024h-271v1462h340l357 -1001h4zM705 -102v-199q0 -176 -128 -205q-36 -8 -71 -12v74q35 10 53 32t21 68h-105v242h230z" />
    <glyph glyph-name="ncommaaccent" unicode="&#x146;" horiz-adv-x="1024" 
d="M930 817v-817h-283v760q0 86 -29 120t-92 33q-150 0 -149 -182v-731h-283v1102h271v-129h4q87 159 280 157q281 0 281 -313zM631 -102v-199q0 -176 -128 -205q-36 -8 -71 -12v74q35 10 53 32t21 68h-105v242h230z" />
    <glyph glyph-name="Ncaron" unicode="&#x147;" horiz-adv-x="1175" 
d="M803 461v1001h270v-1462h-336l-360 1024h-4v-1024h-271v1462h340l357 -1001h4zM281 1843h217l94 -174l98 174h205l-160 -295h-295z" />
    <glyph glyph-name="ncaron" unicode="&#x148;" horiz-adv-x="1024" 
d="M930 817v-817h-283v760q0 86 -29 120t-92 33q-150 0 -149 -182v-731h-283v1102h271v-129h4q87 159 280 157q281 0 281 -313zM201 1528h217l94 -174l98 174h205l-160 -295h-295z" />
    <glyph glyph-name="Omacron" unicode="&#x14c;" horiz-adv-x="1138" 
d="M570 188q126 0 166 124q36 106 36 418q0 311 -29 398q-29 86 -69 116t-105 30t-105 -30q-77 -59 -90 -263q-7 -103 -7 -332q1 -229 29 -315t68 -116t106 -30zM72 731q0 166 15 306q31 289 218 398q98 56 264 56q305 0 415 -213q52 -100 68 -240t15 -307q0 -166 -15 -306
q-16 -141 -68 -241t-150 -156t-264 -56t-265 56q-185 107 -218 397q-15 140 -15 306zM868 1774v-156h-602v156h602z" />
    <glyph glyph-name="omacron" unicode="&#x14d;" 
d="M492 164q86 0 118 90t33 297q0 207 -33 297t-123 90t-123 -109q-24 -82 -24 -281t20 -263q20 -65 49 -93q30 -28 83 -28zM57 548q0 297 101 440t334 142q245 4 338 -136q94 -140 95 -438q1 -299 -100 -442t-339 -145q-239 -2 -334 140t-95 439zM791 1458v-155h-603v155
h603z" />
    <glyph glyph-name="Obreve" unicode="&#x14e;" horiz-adv-x="1138" 
d="M570 188q126 0 166 124q36 106 36 418q0 311 -29 398q-29 86 -69 116t-105 30t-105 -30q-77 -59 -90 -263q-7 -103 -7 -332q1 -229 29 -315t68 -116t106 -30zM72 731q0 166 15 306q31 289 218 398q98 56 264 56q305 0 415 -213q52 -100 68 -240t15 -307q0 -166 -15 -306
q-16 -141 -68 -241t-150 -156t-264 -56t-265 56q-185 107 -218 397q-15 140 -15 306zM567 1708q59 0 103 37q43 37 49 96h133q0 -179 -147 -259q-55 -30 -139 -30q-146 0 -224 104q-59 79 -59 185h133q6 -59 49 -96t102 -37z" />
    <glyph glyph-name="obreve" unicode="&#x14f;" 
d="M492 164q86 0 118 90t33 297q0 207 -33 297t-123 90t-123 -109q-24 -82 -24 -281t20 -263q20 -65 49 -93q30 -28 83 -28zM57 548q0 297 101 440t334 142q245 4 338 -136q94 -140 95 -438q1 -299 -100 -442t-339 -145q-239 -2 -334 140t-95 439zM492 1393q60 0 102 37
q43 37 49 96h133q0 -106 -59 -186q-77 -103 -225 -103q-147 0 -226 103q-59 79 -59 186h133q6 -59 49 -96t103 -37z" />
    <glyph glyph-name="Ohungarumlaut" unicode="&#x150;" horiz-adv-x="1138" 
d="M570 188q126 0 166 124q36 106 36 418q0 311 -29 398q-29 86 -69 116t-105 30t-105 -30q-77 -59 -90 -263q-7 -103 -7 -332q1 -229 29 -315t68 -116t106 -30zM72 731q0 166 15 306q31 289 218 398q98 56 264 56q305 0 415 -213q52 -100 68 -240t15 -307q0 -166 -15 -306
q-16 -141 -68 -241t-150 -156t-264 -56t-265 56q-185 107 -218 397q-15 140 -15 306zM406 1843h282l-201 -295h-192zM745 1843h283l-201 -295h-192z" />
    <glyph glyph-name="ohungarumlaut" unicode="&#x151;" 
d="M492 164q86 0 118 90t33 297q0 207 -33 297t-123 90t-123 -109q-24 -82 -24 -281t20 -263q20 -65 49 -93q30 -28 83 -28zM57 548q0 297 101 440t334 142q245 4 338 -136q94 -140 95 -438q1 -299 -100 -442t-339 -145q-239 -2 -334 140t-95 439zM328 1528h282l-200 -295
h-193zM668 1528h282l-200 -295h-193z" />
    <glyph glyph-name="OE" unicode="&#x152;" horiz-adv-x="1593" 
d="M514 1491q202 0 266 -107h4v78h748v-241h-496v-344h465v-242h-465v-393h512v-242h-764v84h-4q-35 -78 -125 -95.5t-127 -17.5q-406 0 -431 315.5t-25 459.5q0 346 91 545.5t351 199.5zM367 731.5q0 -145.5 6 -249t27.5 -169t61.5 -95.5t106 -30t103.5 27t55.5 90.5
t22.5 168t4.5 258t-4.5 258t-22.5 168t-55 90t-104 26.5t-106.5 -30t-61 -95.5t-27.5 -168.5t-6 -248.5z" />
    <glyph glyph-name="oe" unicode="&#x153;" horiz-adv-x="1517" 
d="M786 977q84 153 290 153q211 0 296.5 -139.5t85.5 -419.5v-63h-559v-88q0 -175 50 -215.5t89 -40.5q72 0 105 51t45 156h254q-17 -400 -383 -400q-129 0 -196.5 50.5t-90.5 111.5q-29 -78 -113.5 -120t-196.5 -42q-221 0 -312 139.5t-91 436.5q0 298 100.5 440.5
t334.5 142.5q117 0 184 -37.5t108 -115.5zM645 551q0 207 -32.5 297t-118.5 90q-135 0 -143.5 -151.5t-8.5 -293.5t28 -235.5t120 -93.5t123.5 90t31.5 297zM1026.5 938q-60.5 0 -94 -64.5t-33.5 -154.5v-43h289q-4 139 -24.5 183t-48.5 61.5t-88.5 17.5z" />
    <glyph glyph-name="Racute" unicode="&#x154;" horiz-adv-x="1138" 
d="M397 823h123q106 0 164 50q57 50 57 169q0 203 -204 203h-140v-422zM1036 1085q0 -308 -243 -360v-4q142 -19 187 -111q44 -92 48 -336q2 -117 13 -178t53 -84v-12h-320q-32 43 -37 154l-8 280q-4 86 -43 135t-131 49h-158v-618h-295v1462h545q185 0 287 -93t102 -284z
M510 1843h283l-201 -295h-193z" />
    <glyph glyph-name="racute" unicode="&#x155;" horiz-adv-x="681" 
d="M588 860q-142 0 -193 -105q-18 -38 -18 -93v-662h-283v1102h271v-148h4q95 176 254 176q25 0 51 -4v-270q-47 4 -86 4zM276 1528h283l-201 -295h-192z" />
    <glyph glyph-name="Rcommaaccent" unicode="&#x156;" horiz-adv-x="1138" 
d="M397 823h123q106 0 164 50q57 50 57 169q0 203 -204 203h-140v-422zM1036 1085q0 -308 -243 -360v-4q142 -19 187 -111q44 -92 48 -336q2 -117 13 -178t53 -84v-12h-320q-32 43 -37 154l-8 280q-4 86 -43 135t-131 49h-158v-618h-295v1462h545q185 0 287 -93t102 -284z
M700 -102v-199q0 -177 -128 -205q-36 -8 -70 -12v74q35 10 53 32t20 68h-104v242h229z" />
    <glyph glyph-name="rcommaaccent" unicode="&#x157;" horiz-adv-x="681" 
d="M588 860q-142 0 -193 -105q-18 -38 -18 -93v-662h-283v1102h271v-148h4q95 176 254 176q25 0 51 -4v-270q-47 4 -86 4zM358 -102v-199q0 -177 -128 -205q-36 -8 -70 -12v74q35 10 53 32t20 68h-104v242h229z" />
    <glyph glyph-name="Rcaron" unicode="&#x158;" horiz-adv-x="1138" 
d="M397 823h123q106 0 164 50q57 50 57 169q0 203 -204 203h-140v-422zM1036 1085q0 -308 -243 -360v-4q142 -19 187 -111q44 -92 48 -336q2 -117 13 -178t53 -84v-12h-320q-32 43 -37 154l-8 280q-4 86 -43 135t-131 49h-158v-618h-295v1462h545q185 0 287 -93t102 -284z
M221 1843h217l94 -174l99 174h205l-160 -295h-295z" />
    <glyph glyph-name="rcaron" unicode="&#x159;" horiz-adv-x="681" 
d="M588 860q-142 0 -193 -105q-18 -38 -18 -93v-662h-283v1102h271v-148h4q95 176 254 176q25 0 51 -4v-270q-47 4 -86 4zM82 1528h217l94 -174l99 174h204l-159 -295h-295z" />
    <glyph glyph-name="Sacute" unicode="&#x15a;" horiz-adv-x="1062" 
d="M340 457v-43q0 -115 43 -170t152 -56q67 0 121 44t54 139t-55 146q-56 52 -180 93t-196 80t-120 91q-95 103 -93 280q0 217 120 323q121 106 330 106t332 -96q123 -97 123 -296v-41h-283q0 105 -37 161t-123 56q-136 0 -160 -106t21 -178q29 -46 123 -85l227 -98
q160 -72 219 -158q60 -86 60 -229q0 -231 -134 -340t-379 -109t-353 112t-107 314v60h295zM535 1843h282l-201 -295h-192z" />
    <glyph glyph-name="sacute" unicode="&#x15b;" horiz-adv-x="909" 
d="M301 360v-36q0 -72 38 -116t107 -44q146 0 146 131q0 53 -31 81t-72 44l-198 72q-234 82 -235 308t219 304q77 27 186 26q193 0 285 -82t92 -231v-45h-254q0 86 -28 126t-89 40t-101 -30t-40 -80t26 -83t97 -55l169 -57q132 -45 188 -118t56 -179q0 -366 -426 -365
q-312 0 -370 206q-18 65 -19 145v38h254zM461 1528h282l-200 -295h-193z" />
    <glyph glyph-name="Scircumflex" unicode="&#x15c;" horiz-adv-x="1062" 
d="M340 457v-43q0 -115 43 -170t152 -56q67 0 121 44t54 139t-55 146q-56 52 -180 93t-196 80t-120 91q-95 103 -93 280q0 217 120 323q121 106 330 106t332 -96q123 -97 123 -296v-41h-283q0 105 -37 161t-123 56q-136 0 -160 -106t21 -178q29 -46 123 -85l227 -98
q160 -72 219 -158q60 -86 60 -229q0 -231 -134 -340t-379 -109t-353 112t-107 314v60h295zM383 1843h295l160 -295h-217l-95 174l-98 -174h-205z" />
    <glyph glyph-name="scircumflex" unicode="&#x15d;" horiz-adv-x="909" 
d="M301 360v-36q0 -72 38 -116t107 -44q146 0 146 131q0 53 -31 81t-72 44l-198 72q-234 82 -235 308t219 304q77 27 186 26q193 0 285 -82t92 -231v-45h-254q0 86 -28 126t-89 40t-101 -30t-40 -80t26 -83t97 -55l169 -57q132 -45 188 -118t56 -179q0 -366 -426 -365
q-312 0 -370 206q-18 65 -19 145v38h254zM317 1528h295l160 -295h-217l-94 174l-99 -174h-204z" />
    <glyph glyph-name="Scedilla" unicode="&#x15e;" horiz-adv-x="1062" 
d="M45 457h295v-43q0 -114 43.5 -170t151.5 -56q68 0 122 44t54 138t-55 146t-180 94q-125 41 -197 80t-142.5 116t-70.5 275q0 197 120.5 303.5t331.5 106.5q322 0 387.5 -144.5t65.5 -248.5v-41h-283q0 104 -37 160.5t-125 56.5t-127 -47t-39 -119t29 -118t123 -85
l227 -98q160 -72 219.5 -159t59.5 -228q0 -230 -129 -334t-346 -115l-60 -90q29 10 65 10q75 0 127 -39t48 -108q0 -92 -66.5 -140t-197.5 -48t-199 38l39 95q59 -31 122 -31q122 0 122 64.5t-90 68.5q-38 0 -70 -12l-45 41l98 153q-190 14 -284 109q-106 113 -107 315v60z
" />
    <glyph glyph-name="scedilla" unicode="&#x15f;" horiz-adv-x="909" 
d="M47 322v38h254v-36q0 -72 38 -116t107 -44q146 0 146 131q0 53 -31 80.5t-72 44.5l-198 72q-236 83 -236 309t148.5 277.5t257.5 51.5q193 0 285 -81.5t92 -231.5v-45h-254q0 86 -28 126t-89 40t-101 -30t-40 -80t25.5 -82.5t97.5 -55.5l169 -57q133 -45 188.5 -118
t55.5 -200t-85 -231t-302 -113l-59 -90q62 21 113 6.5t90.5 -44t35.5 -99.5q0 -92 -66.5 -140t-198.5 -48t-197 38l38 95q59 -31 122 -31q122 0 122 64.5t-90 68.5q-36 0 -70 -12l-45 41l101 155q-215 18 -269.5 122t-54.5 225z" />
    <glyph glyph-name="Scaron" unicode="&#x160;" horiz-adv-x="1062" 
d="M340 457v-43q0 -115 43 -170t152 -56q67 0 121 44t54 139t-55 146q-56 52 -180 93t-196 80t-120 91q-95 103 -93 280q0 217 120 323q121 106 330 106t332 -96q123 -97 123 -296v-41h-283q0 105 -37 161t-123 56q-136 0 -160 -106t21 -178q29 -46 123 -85l227 -98
q160 -72 219 -158q60 -86 60 -229q0 -231 -134 -340t-379 -109t-353 112t-107 314v60h295zM219 1847h217l94 -174l99 174h205l-160 -295h-295z" />
    <glyph glyph-name="scaron" unicode="&#x161;" horiz-adv-x="909" 
d="M301 360v-36q0 -72 38 -116t107 -44q146 0 146 131q0 53 -31 81t-72 44l-198 72q-234 82 -235 308t219 304q77 27 186 26q193 0 285 -82t92 -231v-45h-254q0 86 -28 126t-89 40t-101 -30t-40 -80t26 -83t97 -55l169 -57q132 -45 188 -118t56 -179q0 -366 -426 -365
q-312 0 -370 206q-18 65 -19 145v38h254zM150 1528h217l94 -174l98 174h205l-160 -295h-295z" />
    <glyph glyph-name="Tcommaaccent" unicode="&#x162;" 
d="M958 1462v-241h-319v-1221h-295v1221h-319v241h933zM608 -102v-199q0 -177 -128 -205q-36 -8 -70 -12v74q35 10 53 32t20 68h-104v242h229z" />
    <glyph glyph-name="tcommaaccent" unicode="&#x163;" horiz-adv-x="606" 
d="M398 -12q-142 0 -192 60t-50 231v630h-144v193h144v315h282v-315h164v-193h-164v-596q0 -66 23 -99t141 -17v-197q-140 -12 -204 -12zM512 -102v-199q0 -177 -128 -205q-36 -8 -71 -12v74q35 10 54 31q18 22 20 69h-104v242h229z" />
    <glyph glyph-name="Tcaron" unicode="&#x164;" 
d="M958 1462v-241h-319v-1221h-295v1221h-319v241h933zM186 1843h217l95 -174l98 174h205l-160 -295h-295z" />
    <glyph glyph-name="tcaron" unicode="&#x165;" horiz-adv-x="839" 
d="M655 1462h246l-129 -295h-184zM398 -12q-142 0 -192 60t-50 231v630h-144v193h144v315h282v-315h164v-193h-164v-596q0 -66 23 -99t141 -17v-197q-140 -12 -204 -12z" />
    <glyph glyph-name="Tbar" unicode="&#x166;" 
d="M958 1462v-241h-319v-267h221v-125h-221v-829h-295v829h-221v125h221v267h-319v241h933z" />
    <glyph glyph-name="tbar" unicode="&#x167;" horiz-adv-x="606" 
d="M398 -12q-144 0 -193 60.5t-49 230.5v305h-166v125h166v200h-144v193h144v315h282v-315h164v-193h-164v-200h183v-125h-183v-271q0 -66 20 -93t68 -27t76 4v-197q-140 -12 -204 -12z" />
    <glyph glyph-name="Utilde" unicode="&#x168;" horiz-adv-x="1101" 
d="M379 1462v-1020q1 -123 27 -169t59 -65q33 -20 85 -20t86 20q87 50 87 234v1020h295v-1020q0 -258 -144 -374q-121 -97 -327 -97q-207 0 -320 89q-143 113 -143 382v1020h295zM673 1751q30 0 44 27t14 47h148q-9 -111 -61 -183t-130 -71q-44 -1 -103 23t-87 35t-54 11
q-51 0 -65 -73h-143q33 254 190 254q57 0 88 -15l98 -43q31 -12 61 -12z" />
    <glyph glyph-name="utilde" unicode="&#x169;" horiz-adv-x="1024" 
d="M94 285v817h283v-760q0 -86 29 -120t92 -34q150 0 149 183v731h283v-1102h-271v129h-4q-87 -158 -280 -158q-281 0 -281 314zM628 1436q30 0 44 26t14 47h148q-10 -111 -62 -183t-129 -71q-52 0 -190 59q-29 11 -54 11q-51 0 -65 -74h-144q33 256 191 254q57 0 88 -14
l98 -43q31 -12 61 -12z" />
    <glyph glyph-name="Umacron" unicode="&#x16a;" horiz-adv-x="1101" 
d="M379 1462v-1020q1 -123 27 -169t59 -65q33 -20 85 -20t86 20q87 50 87 234v1020h295v-1020q0 -258 -144 -374q-121 -97 -327 -97q-207 0 -320 89q-143 113 -143 382v1020h295zM854 1774v-156h-602v156h602z" />
    <glyph glyph-name="umacron" unicode="&#x16b;" horiz-adv-x="1024" 
d="M94 285v817h283v-760q0 -86 29 -120t92 -34q150 0 149 183v731h283v-1102h-271v129h-4q-87 -158 -280 -158q-281 0 -281 314zM813 1458v-155h-602v155h602z" />
    <glyph glyph-name="Ubreve" unicode="&#x16c;" horiz-adv-x="1101" 
d="M379 1462v-1020q1 -123 27 -169t59 -65q33 -20 85 -20t86 20q87 50 87 234v1020h295v-1020q0 -258 -144 -374q-121 -97 -327 -97q-207 0 -320 89q-143 113 -143 382v1020h295zM553 1708q59 0 102 37t50 96h133q0 -105 -60 -185q-78 -104 -225 -104t-225 104
q-57 76 -60 185h133q5 -59 49 -96t103 -37z" />
    <glyph glyph-name="ubreve" unicode="&#x16d;" horiz-adv-x="1024" 
d="M94 285v817h283v-760q0 -86 29 -120t92 -34q150 0 149 183v731h283v-1102h-271v129h-4q-87 -158 -280 -158q-281 0 -281 314zM514 1393q59 0 102 37t50 96h133q0 -104 -60 -186q-77 -103 -224 -103t-226 103q-57 76 -60 186h133q6 -59 50 -96t102 -37z" />
    <glyph glyph-name="Uring" unicode="&#x16e;" horiz-adv-x="1101" 
d="M379 1462v-1020q1 -123 27 -169t59 -65q33 -20 85 -20t86 20q87 50 87 234v1020h295v-1020q0 -258 -144 -374q-121 -97 -327 -97q-207 0 -320 89q-143 113 -143 382v1020h295zM784 1727q0 -100 -67 -160q-68 -59 -165 -59t-164 59q-66 60 -66 161t66 163q66 61 164 62
q97 1 164 -62q68 -64 68 -164zM436 1729q0 -49 34 -83t83 -34t83 34t34 83t-34 83t-83 33q-49 1 -83 -33t-34 -83z" />
    <glyph glyph-name="uring" unicode="&#x16f;" horiz-adv-x="1024" 
d="M94 285v817h283v-760q0 -86 29 -120t92 -34q150 0 149 183v731h283v-1102h-271v129h-4q-87 -158 -280 -158q-281 0 -281 314zM512 1638q97 0 164 -63t67 -163q0 -101 -67 -161q-68 -59 -165 -59t-164 59q-66 60 -66 161t67 163q67 63 164 63zM395 1413q0 -49 34 -83
t83 -34t83 34t34 83t-34 83t-83 34t-83 -34t-34 -83z" />
    <glyph glyph-name="Uhungarumlaut" unicode="&#x170;" horiz-adv-x="1101" 
d="M379 1462v-1020q1 -123 27 -169t59 -65q33 -20 85 -20t86 20q87 50 87 234v1020h295v-1020q0 -258 -144 -374q-121 -97 -327 -97q-207 0 -320 89q-143 113 -143 382v1020h295zM393 1843h283l-201 -295h-192zM733 1843h283l-201 -295h-192z" />
    <glyph glyph-name="uhungarumlaut" unicode="&#x171;" horiz-adv-x="1024" 
d="M94 285v817h283v-760q0 -86 29 -120t92 -34q150 0 149 183v731h283v-1102h-271v129h-4q-87 -158 -280 -158q-281 0 -281 314zM342 1528h283l-201 -295h-193zM682 1528h283l-201 -295h-193z" />
    <glyph glyph-name="Uogonek" unicode="&#x172;" horiz-adv-x="1101" 
d="M526 -444q-202 0 -202 164q0 74 57 140t137 111q-246 7 -340 137t-94 334v1020h295v-1020q0 -123 26.5 -169t59.5 -65.5t85 -19.5q98 0 135.5 65.5t37.5 188.5v1020h295v-1020q0 -289 -116 -361.5t-177 -86.5l-35 -8q-30 -22 -107 -92t-77 -139q0 -68 59 -68t127 41
l62 -101q-99 -71 -228 -71z" />
    <glyph glyph-name="uogonek" unicode="&#x173;" horiz-adv-x="1024" 
d="M648 -444q-182 0 -183 161q0 142 194 283v129h-4q-87 -158 -280 -158q-281 0 -281 314v817h283v-760q0 -86 28.5 -120t92.5 -34q150 0 149 183v731h283v-1102h-131q-145 -130 -157.5 -180.5t-12.5 -81.5q0 -51 53 -51t115 41l55 -101q-53 -41 -98.5 -56t-105.5 -15z" />
    <glyph glyph-name="Wcircumflex" unicode="&#x174;" horiz-adv-x="1556" 
d="M16 1462h283l162 -1081h4l172 1081h283l172 -1081h4l161 1081h283l-266 -1462h-330l-164 1061h-4l-164 -1061h-329zM631 1843h295l159 -295h-217l-94 174l-98 -174h-205z" />
    <glyph glyph-name="wcircumflex" unicode="&#x175;" horiz-adv-x="1441" 
d="M14 1102h283l129 -783h4l137 783h307l146 -783h4l133 783h270l-237 -1102h-322l-145 782h-4l-137 -782h-328zM575 1528h295l160 -295h-217l-94 174l-98 -174h-205z" />
    <glyph glyph-name="Ycircumflex" unicode="&#x176;" horiz-adv-x="1064" 
d="M680 0h-295v575l-379 887h332l192 -565h5l204 565h320l-379 -887v-575zM391 1843h295l160 -295h-217l-94 174l-99 -174h-205z" />
    <glyph glyph-name="ycircumflex" unicode="&#x177;" horiz-adv-x="909" 
d="M168 -156q78 0 112 41t39 115l-309 1102h295l164 -762h4l143 762h283l-266 -1028q-13 -78 -59 -196t-92 -164t-110 -60t-163 -14h-115v210q37 -6 74 -6zM324 1528h294l160 -295h-217l-94 174l-98 -174h-205z" />
    <glyph glyph-name="Ydieresis" unicode="&#x178;" horiz-adv-x="1064" 
d="M680 0h-295v575l-379 887h332l192 -565h5l204 565h320l-379 -887v-575zM242 1817h229v-242h-229v242zM594 1817h229v-242h-229v242z" />
    <glyph glyph-name="Zacute" unicode="&#x179;" horiz-adv-x="985" 
d="M86 1221v241h842v-223l-547 -997h555v-242h-887v215l539 1006h-502zM504 1843h282l-200 -295h-193z" />
    <glyph glyph-name="zacute" unicode="&#x17a;" horiz-adv-x="872" 
d="M70 872v230h753v-217l-440 -656h440v-229h-774v217l440 655h-419zM455 1528h282l-200 -295h-193z" />
    <glyph glyph-name="Zdotaccent" unicode="&#x17b;" horiz-adv-x="985" 
d="M86 1221v241h842v-223l-547 -997h555v-242h-887v215l539 1006h-502zM621 1817v-242h-230v242h230z" />
    <glyph glyph-name="zdotaccent" unicode="&#x17c;" horiz-adv-x="872" 
d="M70 872v230h753v-217l-440 -656h440v-229h-774v217l440 655h-419zM561 1501v-241h-229v241h229z" />
    <glyph glyph-name="Zcaron" unicode="&#x17d;" horiz-adv-x="985" 
d="M86 1221v241h842v-223l-547 -997h555v-242h-887v215l539 1006h-502zM209 1847h217l94 -174l98 174h205l-159 -295h-295z" />
    <glyph glyph-name="zcaron" unicode="&#x17e;" horiz-adv-x="872" 
d="M70 872v230h753v-217l-440 -656h440v-229h-774v217l440 655h-419zM141 1528h217l95 -174l98 174h205l-160 -295h-295z" />
    <glyph glyph-name="florin" unicode="&#x192;" 
d="M869 1270q-88 0 -124.5 -48.5t-64.5 -195.5l-31 -149h225l-30 -168h-228l-133 -701q-35 -190 -120.5 -279t-286.5 -89q-108 0 -148 14l41 186q31 -8 74 -8q81 0 116 42.5t56 158.5l131 676h-215l33 168h215l35 182q40 219 130 311t275 92q102 0 154 -6l-39 -192
q-24 6 -65 6z" />
    <glyph glyph-name="Scommaaccent" unicode="&#x218;" horiz-adv-x="1062" 
d="M340 457v-43q0 -115 43 -170t152 -56q67 0 121 44t54 139t-55 146q-56 52 -180 93t-196 80t-120 91q-95 103 -93 280q0 217 120 323q121 106 330 106t332 -96q123 -97 123 -296v-41h-283q0 105 -37 161t-123 56q-136 0 -160 -106t21 -178q29 -46 123 -85l227 -98
q160 -72 219 -158q60 -86 60 -229q0 -231 -134 -340t-379 -109t-353 112t-107 314v60h295zM635 -102v-199q0 -176 -128 -205q-36 -8 -71 -12v74q35 10 53 32t21 68h-104v242h229z" />
    <glyph glyph-name="scommaaccent" unicode="&#x219;" horiz-adv-x="909" 
d="M301 360v-36q0 -72 38 -116t107 -44q146 0 146 131q0 53 -31 81t-72 44l-198 72q-234 82 -235 308t219 304q77 27 186 26q193 0 285 -82t92 -231v-45h-254q0 86 -28 126t-89 40t-101 -30t-40 -80t26 -83t97 -55l169 -57q132 -45 188 -118t56 -179q0 -366 -426 -365
q-312 0 -370 206q-18 65 -19 145v38h254zM569 -102v-199q0 -177 -128 -205q-36 -8 -70 -12v74q35 10 53 32t20 68h-104v242h229z" />
    <glyph glyph-name="uni021A" unicode="&#x21a;" 
d="M958 1462v-241h-319v-1221h-295v1221h-319v241h933zM608 -102v-199q0 -177 -128 -205q-36 -8 -70 -12v74q35 10 53 32t20 68h-104v242h229z" />
    <glyph glyph-name="uni021B" unicode="&#x21b;" horiz-adv-x="606" 
d="M398 -12q-142 0 -192 60t-50 231v630h-144v193h144v315h282v-315h164v-193h-164v-596q0 -66 23 -99t141 -17v-197q-140 -12 -204 -12zM512 -102v-199q0 -177 -128 -205q-36 -8 -71 -12v74q35 10 54 31q18 22 20 69h-104v242h229z" />
    <glyph glyph-name="circumflex" unicode="&#x2c6;" horiz-adv-x="454" 
d="M80 1528h295l160 -295h-218l-94 174l-98 -174h-205z" />
    <glyph glyph-name="caron" unicode="&#x2c7;" horiz-adv-x="454" 
d="M-80 1528h217l94 -174l99 174h205l-160 -295h-295z" />
    <glyph glyph-name="uni02C9" unicode="&#x2c9;" horiz-adv-x="454" 
d="M528 1458v-155h-602v155h602z" />
    <glyph glyph-name="breve" unicode="&#x2d8;" horiz-adv-x="454" 
d="M227.5 1393q59.5 0 102.5 36.5t49 96.5h133q0 -105 -68 -197t-216 -92q-149 0 -217 91t-68 198h133q6 -59 49 -96t102.5 -37z" />
    <glyph glyph-name="dotaccent" unicode="&#x2d9;" horiz-adv-x="454" 
d="M342 1501v-241h-229v241h229z" />
    <glyph glyph-name="ring" unicode="&#x2da;" horiz-adv-x="454" 
d="M459 1411q0 -100 -67.5 -159.5t-165.5 -59.5t-164 59.5t-66 159.5t67 163.5t164 63.5t164.5 -63.5t67.5 -163.5zM111 1413q0 -49 33.5 -83t82.5 -34t83 34t34 83t-34 83t-83 34t-82.5 -34t-33.5 -83z" />
    <glyph glyph-name="ogonek" unicode="&#x2db;" horiz-adv-x="454" 
d="M252 -444q-203 0 -203 165q0 72 67.5 149t184.5 130h137q-174 -130 -190.5 -177.5t-16.5 -72.5q0 -63 59 -63t128 41l61 -101q-99 -71 -227 -71z" />
    <glyph glyph-name="tilde" unicode="&#x2dc;" horiz-adv-x="454" 
d="M96 1505q57 0 88 -14l99 -43q31 -12 61 -12t43.5 26.5t13.5 46.5h148q-10 -111 -61.5 -182.5t-129.5 -71.5q-40 0 -100.5 24t-89.5 35t-53 11q-51 0 -66 -74h-143q33 254 190 254z" />
    <glyph glyph-name="hungarumlaut" unicode="&#x2dd;" horiz-adv-x="454" 
d="M35 1528h282l-200 -295h-193zM375 1528h282l-200 -295h-193z" />
    <glyph glyph-name="uni0394" unicode="&#x394;" horiz-adv-x="1411" 
d="M688 1180l-344 -957h713zM18 0l547 1458h250l580 -1458h-1377z" />
    <glyph glyph-name="uni03A9" unicode="&#x3a9;" horiz-adv-x="1558" 
d="M870 0v393q158 37 236 149.5t78 283.5t-115.5 298t-299.5 127t-300.5 -128t-116.5 -300q0 -348 312 -430v-393h-568v209h369v80q-181 53 -276 201t-95 315q0 304 195 488t479 184t425.5 -130t194 -248.5t52.5 -236.5q0 -224 -96 -375.5t-277 -197.5v-80h373v-209h-570z
" />
    <glyph glyph-name="uni03BC" unicode="&#x3bc;" horiz-adv-x="1024" 
d="M447 -29q-42 0 -70 17v-348h-283v1462h283v-760q0 -86 28.5 -120t92.5 -34q150 0 149 183v731h283v-1102h-271v129h-4q-45 -82 -105.5 -120t-102.5 -38z" />
    <glyph glyph-name="pi" unicode="&#x3c0;" horiz-adv-x="1222" 
d="M776 256v520h-401v-776h-230v776h-143v217h1167v-217h-161v-467q0 -64 12.5 -97.5t60.5 -33.5q47 0 95 23v-172q-92 -45 -171 -45q-138 0 -183.5 70t-45.5 202z" />
    <glyph glyph-name="endash" unicode="&#x2013;" horiz-adv-x="1024" 
d="M0 707h1024v-230h-1024v230z" />
    <glyph glyph-name="emdash" unicode="&#x2014;" horiz-adv-x="2048" 
d="M0 707h2048v-230h-2048v230z" />
    <glyph glyph-name="quoteleft" unicode="&#x2018;" horiz-adv-x="532" 
d="M131 1071q0 181 59 278.5t211 112.5v-143q-53 -10 -79.5 -57.5t-26.5 -104.5v-33h106v-319h-270v266z" />
    <glyph glyph-name="quoteright" unicode="&#x2019;" horiz-adv-x="532" 
d="M401 1196q0 -184 -60 -280t-210 -111v143q53 10 80 57.5t27 104.5v33h-107v319h270v-266z" />
    <glyph glyph-name="quotesinglbase" unicode="&#x201a;" horiz-adv-x="532" 
d="M401 319v-266q0 -184 -60 -280t-210 -111v143q53 10 80 57.5t27 104.5v33h-107v319h270z" />
    <glyph glyph-name="quotedblleft" unicode="&#x201c;" horiz-adv-x="948" 
d="M539 1071q0 183 59.5 279.5t210.5 111.5v-143q-53 -10 -80 -57.5t-27 -104.5v-33h107v-319h-270v266zM139 1071q0 181 59 278.5t212 112.5v-143q-53 -10 -80 -57.5t-27 -104.5v-33h107v-319h-271v266z" />
    <glyph glyph-name="quotedblright" unicode="&#x201d;" horiz-adv-x="948" 
d="M139 1462h271v-266q0 -181 -59.5 -278.5t-211.5 -112.5v143q53 10 80 57.5t27 104.5v33h-107v319zM539 1462h270v-266q0 -181 -59.5 -278.5t-210.5 -112.5v143q53 10 79.5 57.5t26.5 104.5v33h-106v319z" />
    <glyph glyph-name="quotedblbase" unicode="&#x201e;" horiz-adv-x="948" 
d="M539 319h270v-266q0 -181 -59.5 -278.5t-210.5 -112.5v143q53 10 79.5 57.5t26.5 104.5v33h-106v319zM139 319h271v-266q0 -181 -59.5 -278.5t-211.5 -112.5v143q53 10 80 57.5t27 104.5v33h-107v319z" />
    <glyph glyph-name="dagger" unicode="&#x2020;" 
d="M350 1462h283v-405h344v-230h-344v-1110h-283v1110h-344v230h344v405z" />
    <glyph glyph-name="daggerdbl" unicode="&#x2021;" 
d="M350 106h-344v230h344v508h-344v229h344v389h283v-389h344v-229h-344v-508h344v-230h-344v-389h-283v389z" />
    <glyph glyph-name="bullet" unicode="&#x2022;" horiz-adv-x="1024" 
d="M147 731q0 76 29 142.5t78 115.5t115.5 78t142.5 29t142.5 -29t115.5 -78t78 -115.5t29 -142.5t-29 -142.5t-78 -115.5t-115.5 -77.5t-142.5 -28.5t-142.5 28.5t-115.5 77.5t-78 115.5t-29 142.5z" />
    <glyph glyph-name="ellipsis" unicode="&#x2026;" horiz-adv-x="2048" 
d="M477 319v-319h-270v319h270zM1159 319v-319h-270v319h270zM1841 319v-319h-270v319h270z" />
    <glyph glyph-name="perthousand" unicode="&#x2030;" horiz-adv-x="2238" 
d="M1786 365q0 -117 14.5 -177.5t75.5 -60.5t75.5 60.5t14.5 177.5t-14.5 175t-75.5 58t-75.5 -58t-14.5 -175zM1569 362.5q0 210.5 62 301t245 90.5t245 -90.5t62 -301t-62 -301t-245 -90.5t-245 90.5t-62 301zM55 1059q0 209 61.5 300t245.5 91q183 0 245.5 -91t62.5 -300
t-62 -300t-246 -91q-183 0 -245 91t-62 300zM272 1061q0 -117 14.5 -177.5t76 -60.5t76 60.5t14.5 177.5t-14.5 175t-76 58t-76 -58t-14.5 -175zM877 362.5q0 210.5 62 301t245 90.5t245 -91.5t62 -300t-62 -300t-245 -91.5t-245 90.5t-62 301zM1094 365q0 -117 14 -177.5
t75.5 -60.5t76 60.5t14.5 177.5t-14.5 175t-76 58t-75.5 -58t-14 -175zM1094 1485h182l-832 -1548h-182z" />
    <glyph glyph-name="guilsinglleft" unicode="&#x2039;" horiz-adv-x="493" 
d="M94 758l305 246v-271l-161 -141l161 -141v-271l-305 246v332z" />
    <glyph glyph-name="guilsinglright" unicode="&#x203a;" horiz-adv-x="493" 
d="M94 451l162 141l-162 141v271l305 -246v-332l-305 -246v271z" />
    <glyph glyph-name="fraction" unicode="&#x2044;" horiz-adv-x="342" 
d="M496 1485h182l-832 -1548h-182z" />
    <glyph glyph-name="Euro" unicode="&#x20ac;" 
d="M678 1253q-147 0 -165.5 -115.5t-23.5 -185.5h345l-60 -159h-291v-105h271l-60 -160h-207q6 -164 27 -221q39 -125 152 -125t268 137v-256q-158 -92 -309 -92q-414 0 -430 557h-142l60 160h77l3 105h-140l62 159h84q43 504 467 504q182 0 315 -102l-94 -205
q-98 104 -209 104z" />
    <glyph glyph-name="afii61289" unicode="&#x2113;" horiz-adv-x="1024" 
d="M690 1161q0 59 -22.5 100.5t-59.5 41.5t-63.5 -46.5t-26.5 -126.5v-362q172 187 172 393zM647 164q85 0 180 76h4l89 -136q-154 -133 -323 -133t-254 82t-85 213v109l-115 -105h-4l-92 144l209 174v493q0 172 99 284t243 112t225.5 -83.5t81.5 -229.5t-96 -296.5
t-291 -320.5v-240q0 -111 53.5 -127t75.5 -16z" />
    <glyph glyph-name="trademark" unicode="&#x2122;" horiz-adv-x="2027" 
d="M1724 1196h-4l-194 -582h-205l-195 582h-4v-582h-217v848h346l170 -512h4l170 512h347v-848h-218v582zM293 1270h-230v192h689v-192h-230v-656h-229v656z" />
    <glyph glyph-name="Omega" unicode="&#x2126;" horiz-adv-x="1558" 
d="M870 0v393q158 37 236 149.5t78 283.5t-115.5 298t-299.5 127t-300.5 -128t-116.5 -300q0 -348 312 -430v-393h-568v209h369v80q-181 53 -276 201t-95 315q0 304 195 488t479 184t425.5 -130t194 -248.5t52.5 -236.5q0 -224 -96 -375.5t-277 -197.5v-80h373v-209h-570z
" />
    <glyph glyph-name="estimated" unicode="&#x212e;" horiz-adv-x="1228" 
d="M918 604v297q-129 123 -301.5 123t-294.5 -123v-297h596zM322 530v-370q121 -121 296 -121q129 0 223.5 58.5t172.5 187.5l71 -43q-96 -151 -202 -214t-246 -63t-237 44t-166.5 121t-106.5 179.5t-37 284t146.5 342t382.5 160.5q235 0 382.5 -159t147.5 -407h-827z" />
    <glyph glyph-name="partialdiff" unicode="&#x2202;" horiz-adv-x="1146" 
d="M811 592q-110 127 -239 127t-193 -82t-64 -203q0 -120 57 -200t183 -80t194 127t64 262zM512 1292q-123 0 -248 -102l-127 147q86 66 169.5 103t219.5 37t335.5 -123.5t199.5 -626.5q0 -504 -181.5 -629t-342.5 -125q-205 0 -330 133t-125 334q0 200 125 328.5t319 128.5
q158 0 289 -109l2 54q5 164 -69.5 307t-235.5 143z" />
    <glyph glyph-name="Delta" unicode="&#x2206;" horiz-adv-x="1411" 
d="M688 1180l-344 -957h713zM18 0l547 1458h250l580 -1458h-1377z" />
    <glyph glyph-name="product" unicode="&#x220f;" horiz-adv-x="1521" 
d="M1155 -438v1824h-788v-1824h-244v2048h1276v-2048h-244z" />
    <glyph glyph-name="summation" unicode="&#x2211;" horiz-adv-x="1339" 
d="M51 -438v194l617 842l-590 819v193h1186v-224h-863l557 -786l-593 -815h923v-223h-1237z" />
    <glyph glyph-name="minus" unicode="&#x2212;" horiz-adv-x="1228" 
d="M96 645h1037v-254h-1037v254z" />
    <glyph glyph-name="uni2215" unicode="&#x2215;" horiz-adv-x="342" 
d="M496 1485h182l-832 -1548h-182z" />
    <glyph glyph-name="uni2219" unicode="&#x2219;" horiz-adv-x="491" 
d="M47 578q0 86 56.5 142t142.5 56t142 -56t56 -142t-56 -142.5t-142 -56.5t-142.5 56.5t-56.5 142.5z" />
    <glyph glyph-name="radical" unicode="&#x221a;" horiz-adv-x="1116" 
d="M705 -438h-226l-309 641l-104 -49l-91 190l318 145l258 -550l340 1671h250z" />
    <glyph glyph-name="infinity" unicode="&#x221e;" horiz-adv-x="1685" 
d="M442 709q-72 0 -113.5 -53.5t-41.5 -123.5t43 -116.5t119 -46.5q131 0 272 163q-164 177 -279 177zM1243 367q76 0 117 49t41 120.5t-44 123t-131 51.5t-161 -76t-98 -103q144 -165 276 -165zM1498 270.5q-95 -110.5 -260 -110.5t-260 93t-134 138
q-116 -122 -194.5 -175.5t-180.5 -53.5t-167.5 28.5t-113 80t-72 120t-24.5 189.5t93.5 227t263.5 106q169 0 261.5 -97t133.5 -146q101 122 189.5 183.5t188.5 61.5q101 0 166.5 -28.5t135 -105.5t69.5 -238.5t-95 -272z" />
    <glyph glyph-name="integral" unicode="&#x222b;" horiz-adv-x="1257" 
d="M469 1352q0 61 88 158t225 98q80 0 131.5 -28t74 -57.5t22.5 -74.5t-32 -78t-80 -33t-70.5 24.5t-33 53.5t-19.5 53.5t-30 24.5q-36 0 -36 -57l8 -297l2 -963v-218q0 -219 -90 -307.5t-196 -88.5t-179.5 41t-73.5 121q0 47 32 77.5t80 30.5t69.5 -24.5t33 -53t18.5 -53.5
t31 -25q34 0 35 68l-8 229l-2 1084v295z" />
    <glyph glyph-name="approxequal" unicode="&#x2248;" horiz-adv-x="1214" 
d="M881 371q99 0 125 129h151q-21 -248 -125 -304.5t-174 -56.5t-141.5 21.5t-142 47t-135 47t-113.5 21.5t-81 -44t-40 -93h-154q21 242 126.5 302.5t175.5 60.5t136 -20.5t131.5 -45t131 -45t129.5 -20.5zM854 575q-70 0 -138.5 21.5t-137 46.5t-132 46.5t-115.5 21.5
t-83 -42t-39 -94h-154q21 243 126 301t175 58t136.5 -20.5t134 -44t133.5 -44t124 -20.5t86.5 39t39.5 92h151q-21 -247 -129 -304t-178 -57z" />
    <glyph glyph-name="notequal" unicode="&#x2260;" horiz-adv-x="1214" 
d="M70 193v231h354l115 229h-469v232h585l160 313l203 -100l-109 -213h236v-232h-352l-115 -229h467v-231h-586l-160 -318l-200 102l106 216h-235z" />
    <glyph glyph-name="lessequal" unicode="&#x2264;" horiz-adv-x="1214" 
d="M70 -78v232h1075v-232h-1075zM70 565v232l1075 356v-242l-758 -229l758 -223v-242z" />
    <glyph glyph-name="greaterequal" unicode="&#x2265;" horiz-adv-x="1214" 
d="M70 -78v232h1075v-232h-1075zM70 217v242l757 223l-757 229v242l1075 -356v-232z" />
    <glyph glyph-name="lozenge" unicode="&#x25ca;" horiz-adv-x="1214" 
d="M606 1300l-237 -571l237 -573l240 573zM713 -72h-215l-365 801l367 801h213l368 -801z" />
    <glyph glyph-name="uniF8FF" unicode="&#xf8ff;" horiz-adv-x="1048" 
d="M1049 1470v-1470h-1049v1470h1049zM946 102v1264h-844v-1264h844zM680 988q0 56 -46 106.5t-109.5 50.5t-109.5 -45t-59 -150l-102 17q14 145 90 212.5t186 67.5t182 -73.5t72 -194.5q0 -66 -25.5 -120t-102.5 -124t-89 -108.5t-12 -147.5h-94l-4 35q0 113 26.5 165.5
t93.5 118.5t85 100t18 90zM455 240v137h114v-137h-114z" />
    <glyph glyph-name="dotlessj" horiz-adv-x="491" 
d="M84 -360q-74 0 -135 4v204q12 -4 22 -4h23q71 0 90.5 38t19.5 138v1082h283v-1178q0 -145 -70.5 -214.5t-232.5 -69.5z" />
    <glyph glyph-name="grave.cap" horiz-adv-x="454" 
d="M168 1548l-201 295h283l110 -295h-192z" />
    <glyph glyph-name="acute.cap" horiz-adv-x="454" 
d="M205 1843h282l-200 -295h-193z" />
    <glyph glyph-name="circumflex.cap" horiz-adv-x="454" 
d="M80 1843h295l160 -295h-218l-94 174l-98 -174h-205z" />
    <glyph glyph-name="caron.cap" horiz-adv-x="454" 
d="M-80 1843h217l94 -174l99 174h205l-160 -295h-295z" />
    <glyph glyph-name="caron.alt" horiz-adv-x="454" 
d="M162 1462h246l-129 -295h-185z" />
    <glyph glyph-name="tilde.cap" horiz-adv-x="454" 
d="M96 1821q57 0 88 -15l99 -43q31 -12 61 -12t43.5 26.5t13.5 47.5h148q-10 -111 -61.5 -182.5t-129.5 -71.5q-43 0 -102 23.5t-88 34.5t-53 11q-51 0 -66 -73h-143q33 254 190 254z" />
    <glyph glyph-name="dieresis.cap" horiz-adv-x="454" 
d="M-63 1821h229v-242h-229v242zM289 1821h229v-242h-229v242z" />
    <glyph glyph-name="macron.cap" horiz-adv-x="454" 
d="M528 1774v-156h-602v156h602z" />
    <glyph glyph-name="breve.cap" horiz-adv-x="454" 
d="M227.5 1708q59.5 0 102.5 37t49 96h133q0 -104 -68 -196.5t-216 -92.5t-216.5 91.5t-68.5 197.5h133q6 -59 49 -96t102.5 -37z" />
    <glyph glyph-name="ring.cap" horiz-adv-x="454" 
d="M459 1727q0 -100 -67.5 -160t-165.5 -60t-164 60t-66 160t67.5 163.5t163 63.5t164 -63.5t68.5 -163.5zM111 1728.5q0 -49.5 33.5 -83t82.5 -33.5t83 33.5t34 83t-34 83t-83 33.5t-82.5 -33.5t-33.5 -83z" />
    <glyph glyph-name="hungarumlaut.cap" horiz-adv-x="454" 
d="M35 1843h282l-200 -295h-193zM375 1843h282l-200 -295h-193z" />
    <glyph glyph-name="dotaccent.cap" horiz-adv-x="454" 
d="M342 1698v-242h-229v242h229z" />
    <glyph glyph-name="commaaccent" horiz-adv-x="491" 
d="M365 -102v-199q0 -176 -82 -194.5t-117 -22.5v74q35 10 53.5 31.5t20.5 68.5h-105v242h230z" />
    <glyph glyph-name="commaaccent.alt" horiz-adv-x="491" 
d="M129 1221v198q0 177 82 195t117 22v-73q-35 -10 -53.5 -32t-20.5 -69h104v-241h-229z" />
    </font>
</defs>
</svg>
